<?xml version="1.0" standalone="no"?>
<!DOCTYPE svg PUBLIC "-//W3C//DTD SVG 1.1//EN" "http://www.w3.org/Graphics/SVG/1.1/DTD/svg11.dtd" >
<svg xmlns="http://www.w3.org/2000/svg" xmlns:xlink="http://www.w3.org/1999/xlink" version="1.1">
<metadata></metadata>
<defs>
<font id="moon_2.0bold" horiz-adv-x="1155" >
<font-face units-per-em="2048" ascent="1638" descent="-410" />
<missing-glyph horiz-adv-x="1228" />
<glyph unicode="&#xfb01;" horiz-adv-x="774" d="M41 952q0 50 34.5 84.5t84.5 34.5v27q0 140 98.5 239t237.5 99q56 0 120 -23q46 -17 66.5 -62.5t1.5 -90.5q-17 -46 -62.5 -66.5t-91.5 -1.5q-15 6 -34 6q-41 0 -70 -29.5t-29 -70.5v-27h217q50 0 84.5 -34.5t34.5 -84.5v-833q0 -50 -35 -84.5t-86 -34.5 q-49 0 -83.5 34.5t-34.5 84.5l-2 715h-95v-715q0 -50 -34.5 -84.5t-83.5 -34.5t-84 35t-35 84v715q-50 2 -84.5 35.5t-34.5 82.5z" />
<glyph unicode="&#xfb02;" horiz-adv-x="1054" d="M41 952q0 50 34.5 84.5t84.5 34.5v27q0 140 98.5 239t237.5 99q78 0 140 -14.5t97 -37t52 -38.5t26 -31q0 -1 1 -3t1 -3q2 -2 2 -9v-1181q0 -49 -35.5 -84t-85.5 -35t-84.5 35t-34.5 84v715h-2h-176v-715q0 -50 -34.5 -84.5t-83.5 -34.5t-84 35t-35 84v715 q-50 2 -84.5 35.5t-34.5 82.5zM397 1071h176h2v117q-33 10 -79 10q-41 0 -70 -29.5t-29 -70.5v-27z" />
<glyph horiz-adv-x="0" />
<glyph horiz-adv-x="682" />
<glyph unicode=" "  horiz-adv-x="1228" />
<glyph unicode="&#x09;" horiz-adv-x="1228" />
<glyph unicode="&#xa0;" horiz-adv-x="1228" />
<glyph unicode="!" horiz-adv-x="378" d="M61 41q0 52 37 86.5t90 34.5q54 0 91 -34.5t38 -86.5q-1 -52 -38 -86.5t-91 -34.5q-53 0 -90 34.5t-37 86.5zM70 383v950q0 50 34.5 84.5t83.5 34.5q50 0 84.5 -35t34.5 -84v-950q0 -49 -34.5 -84t-84.5 -35q-49 0 -83.5 34.5t-34.5 84.5z" />
<glyph unicode="&#x22;" horiz-adv-x="735" d="M61 1391q0 52 37 86t90 34q54 0 91 -34t38 -86q-2 -63 -41 -143.5t-88 -80.5q-33 0 -63.5 42t-47 93.5t-16.5 88.5zM418 1391q0 52 37 86t90 34q54 0 91 -34t38 -86q-2 -63 -41 -143.5t-88 -80.5q-33 0 -63.5 42t-47 93.5t-16.5 88.5z" />
<glyph unicode="#" horiz-adv-x="1165" d="M61 340q0 27 19.5 46.5t46.5 19.5h154l63 548h-217q-27 0 -46.5 19.5t-19.5 46.5q0 28 19 46.5t47 18.5h231l35 304q3 27 24 43.5t48 13.5t43.5 -24t13.5 -48l-33 -289h269l35 304q3 28 24 44t49 13q26 -3 43.5 -24.5t14.5 -47.5l-35 -289h149q27 0 46.5 -19t19.5 -46 q0 -26 -20 -46t-46 -20h-164l-63 -548h227q26 0 46 -20t20 -46q0 -27 -19.5 -46.5t-46.5 -19.5h-241l-25 -217q-3 -25 -21.5 -41t-43.5 -16h-9q-26 3 -43 24.5t-14 49.5l25 200h-271l-24 -217q-3 -25 -21 -41t-43 -16h-8q-27 3 -43.5 24.5t-13.5 49.5l22 200h-137 q-28 0 -47 19t-19 47zM412 406h268l63 548h-268z" />
<glyph unicode="$" horiz-adv-x="927" d="M61 377q0 49 34.5 84t84.5 35t84.5 -35t34.5 -84q0 -60 49 -98l29 256q-102 30 -158 69q-135 91 -135 258q0 66 25 129.5t71 110.5q103 108 275 110v7q5 30 26.5 49.5t50.5 19.5q2 0 5.5 -1t5.5 -1q32 -3 52 -28.5t15 -57.5l-2 -10q82 -30 140 -88q46 -47 71 -110.5 t25 -129.5q0 -50 -35 -84.5t-84 -34.5t-84 34.5t-35 84.5q0 40 -26 70l-23 -203q111 -38 170 -78q139 -100 139 -274q0 -149 -102 -254q-112 -117 -291 -119v-4q-3 -29 -26 -49.5t-52 -20.5h-10q-31 5 -51 30.5t-17 57.5v9q-87 30 -153 96q-103 106 -103 254zM322 862 q0 -31 15.5 -49t65.5 -37l23 197q-28 -5 -49 -18t-31 -26.5t-16 -29.5t-7 -24t-1 -13zM502 246q66 9 96.5 49t30.5 82q0 41 -20.5 64t-80.5 44z" />
<glyph unicode="%" horiz-adv-x="1806" d="M61 1110q0 -138 100 -234t245 -96q144 0 243 96t99 234t-98.5 233t-243.5 95t-245 -95t-100 -233zM301 1110q0 43 31.5 66.5t73.5 23.5q41 0 72.5 -23.5t31.5 -66.5q0 -44 -31.5 -68t-72.5 -24q-42 0 -73.5 24t-31.5 68zM476 81.5q16 -45.5 61 -69.5q24 -12 53 -12 q33 0 62 18t44 48l600 1200q22 44 6.5 90.5t-59.5 68.5q-44 23 -91 7t-69 -60l-600 -1200q-23 -45 -7 -90.5zM1061 330q0 -138 99 -234t243 -96q142 1 241 97t101 233q0 138 -98.5 232.5t-243.5 94.5t-243.5 -94.5t-98.5 -232.5zM1298 330q0 43 31.5 66.5t73.5 23.5 t73 -23.5t31 -66.5q0 -44 -31 -68t-73 -24t-73.5 24t-31.5 68z" />
<glyph unicode="&#x26;" horiz-adv-x="1224" d="M41 469q0 243 221 365q-104 93 -104 237q0 145 100 250q113 117 295 117q184 0 297 -117q100 -105 100 -250q0 -49 -35 -84t-84 -35t-83.5 34.5t-34.5 84.5q0 47 -38 88t-122 41q-83 0 -120.5 -41t-37.5 -88q0 -44 38 -69t161 -60l16 -4q43 -12 67.5 -50t16.5 -81 q-4 -38 -30 -65t-62 -35l-10 -2q-188 -56 -249.5 -100.5t-61.5 -135.5q0 -75 41.5 -129t101.5 -78t129 -24q38 0 68 6q-48 83 -72 186q-10 49 15.5 90.5t72.5 52.5q49 10 90.5 -15.5t52.5 -72.5q11 -50 33 -96q14 44 14 74q1 49 37 83t86 32q50 -3 84 -39t31 -86 q-3 -111 -59 -211q36 -4 59 -4q49 0 84 -35t35 -84t-35 -84t-84 -35q-146 0 -254 57q-114 -57 -258 -57q-235 0 -381 150q-63 64 -97 147.5t-34 171.5z" />
<glyph unicode="'" horiz-adv-x="378" d="M61 1391q0 52 37 86t90 34q54 0 91 -34t38 -86q-2 -63 -41 -143.5t-88 -80.5q-33 0 -63.5 42t-47 93.5t-16.5 88.5z" />
<glyph unicode="(" horiz-adv-x="458" d="M63 714q0 -324 101 -638q12 -36 44 -59t71 -23q18 0 36 6q46 15 68.5 59.5t7.5 90.5q-89 277 -89 563t89 563q15 47 -7.5 91.5t-68.5 59.5q-48 14 -92 -8t-59 -69q-101 -312 -101 -636z" />
<glyph unicode=")" horiz-adv-x="456" d="M66 150q-15 -46 7 -90.5t68 -59.5q18 -6 37 -6q39 0 71 23t44 59q101 314 101 638t-101 636q-15 47 -59.5 69t-92.5 8q-46 -15 -68 -59.5t-7 -91.5q89 -277 89 -563t-89 -563z" />
<glyph unicode="*" horiz-adv-x="641" d="M61 1225q0 9 6.5 14.5t14.5 5.5h186l-131 133q-6 6 -6 14.5t6 14.5t15.5 6t15.5 -6l131 -131v192q0 9 7 15t16 6q8 0 14 -6t6 -15v-194l137 137q6 6 14.5 6t14.5 -6q14 -15 0 -29l-137 -137h188q8 0 14.5 -5.5t6.5 -14.5t-6.5 -16t-14.5 -7h-186l131 -131q6 -6 6 -15.5 t-6 -15.5t-15.5 -6t-15.5 6l-131 134v-193q0 -9 -6 -16t-14 -7q-9 0 -16 7t-7 16v193l-135 -138q-17 -14 -31 0q-6 6 -6 15.5t6 15.5l137 135h-188q-8 0 -14.5 7t-6.5 16z" />
<glyph unicode="+" horiz-adv-x="778" d="M61 569q0 49 34.5 84t84.5 35h90v90q0 50 35 84.5t84 34.5t84 -34.5t35 -84.5v-90h90q50 0 84.5 -35t34.5 -84t-34.5 -83.5t-84.5 -34.5h-90v-91q0 -50 -35 -85t-84 -35t-84 35t-35 85v91h-90q-50 0 -84.5 34.5t-34.5 83.5z" />
<glyph unicode="," horiz-adv-x="378" d="M61 41q0 52 37 86.5t90 34.5q54 0 91 -34.5t38 -86.5q-2 -63 -41 -143t-88 -80q-33 0 -63.5 41.5t-47 93t-16.5 88.5z" />
<glyph unicode="-" horiz-adv-x="780" d="M61 584q0 -50 35 -84.5t86 -34.5h418q50 0 84.5 34.5t34.5 84.5t-35 85.5t-84 35.5h-418q-51 0 -86 -35.5t-35 -85.5z" />
<glyph unicode="." horiz-adv-x="327" d="M10 41q0 52 37 86.5t90 34.5q54 0 91 -34.5t38 -86.5q-1 -52 -38 -86.5t-91 -34.5q-53 0 -90 34.5t-37 86.5z" />
<glyph unicode="/" horiz-adv-x="819" d="M68 164q-17 -46 4 -91.5t67 -62.5q45 -17 90 4.5t62 67.5l461 1261q17 45 -4.5 91t-67.5 63q-45 17 -90 -4.5t-62 -67.5z" />
<glyph unicode="0" horiz-adv-x="1521" d="M41 719q0 -116 36.5 -226t103 -198.5t155 -155t198.5 -103t226 -36.5q146 0 279.5 57t230 153.5t154 230t57.5 278.5q0 146 -57.5 279.5t-154 229.5t-230 153t-279.5 57q-117 0 -226.5 -36.5t-198 -103t-155 -154.5t-103 -198t-36.5 -227zM281 719q0 199 140.5 340 t338.5 141q131 0 241.5 -64.5t175 -175t64.5 -241.5q0 -198 -141 -339.5t-340 -141.5q-97 0 -186 38.5t-153 103t-102 153.5t-38 186z" />
<glyph unicode="1" horiz-adv-x="319" d="M41 119q0 -49 34.5 -84t84.5 -35t84.5 35t34.5 84v1200q0 49 -34.5 84t-84.5 35t-84.5 -35t-34.5 -84v-1200z" />
<glyph unicode="2" horiz-adv-x="1019" d="M41 119q0 -49 34.5 -84t84.5 -35h700q50 0 84.5 35t34.5 84t-34.5 84t-84.5 35h-551q32 59 97 116t184 144q43 31 62 45.5t59.5 46t61 50.5t54 52t51 58t40.5 60.5t34 68t19 72.5t8 81q0 77 -29.5 149.5t-83.5 127.5q-120 129 -327 129q-100 0 -185 -37t-140 -98 t-85.5 -137t-30.5 -156q0 -50 35 -84.5t84 -34.5t84 34.5t35 84.5q0 24 9 52.5t29.5 61.5t63.5 54.5t101 21.5q57 0 98.5 -17t63 -44.5t31 -54t9.5 -52.5q0 -32 -9 -61.5t-33 -61t-42.5 -53t-62.5 -57t-66 -52t-77 -57.5q-54 -39 -84.5 -61.5t-80.5 -64t-78.5 -72 t-64.5 -76.5t-55.5 -89t-33 -97t-13.5 -111z" />
<glyph unicode="3" horiz-adv-x="1038" d="M41 440q0 -84 31.5 -162.5t89.5 -136.5q130 -141 356 -141q224 0 359 141q57 58 88.5 137t31.5 162q0 203 -166 316q-6 6 -14 10q131 101 131 276q0 74 -28 145t-80 124q-118 127 -322 127q-198 0 -321 -127q-52 -54 -80.5 -124.5t-28.5 -144.5q0 -51 34.5 -85.5 t84.5 -34.5t84.5 34.5t34.5 85.5q0 24 9 49t29.5 51t60 42t93.5 16t94 -16t60 -42t29.5 -51t9.5 -49q0 -60 -43 -89.5t-187 -71.5l-4 -2q-37 -6 -64.5 -34t-31.5 -67q-6 -43 18 -81t66 -50l16 -4q166 -47 221.5 -86t55.5 -117q0 -32 -11.5 -64t-36.5 -64.5t-75 -53 t-117 -20.5t-116 20.5t-74.5 52.5t-37 64.5t-11.5 64.5q0 50 -34.5 84.5t-84.5 34.5t-84.5 -34.5t-34.5 -84.5z" />
<glyph unicode="4" horiz-adv-x="1011" d="M47 475l334 887q17 46 62.5 66.5t91.5 3.5q46 -19 66 -63.5t3 -90.5l-272 -725h162v70q0 49 34 83.5t84 34.5t84.5 -34.5t34.5 -83.5v-70h121q50 0 84.5 -34.5t34.5 -84.5q0 -51 -34.5 -86t-84.5 -35h-121v-194q0 -49 -34.5 -84t-84.5 -35q-49 0 -83.5 34.5t-34.5 84.5 v194h-334q-60 0 -99 52q-34 49 -14 110z" />
<glyph unicode="5" horiz-adv-x="1021" d="M41 432q0 -166 119 -295q137 -137 352 -137q213 0 350 137q119 125 119 295q0 50 -10 93.5t-24.5 77t-40.5 63.5t-49 51t-59.5 41t-61.5 31.5t-66.5 25t-63 19.5t-61.5 16q-148 38 -193 68.5t-45 91.5v190h371v-43q0 -49 35 -84t84 -35q50 0 85.5 35t35.5 84v162 q0 49 -35.5 84t-85.5 35h-609q-49 0 -83.5 -34.5t-34.5 -84.5v-309q0 -193 155 -293q11 -8 24 -15t24 -12.5t26.5 -12t24.5 -10t27 -9.5l25.5 -8.5t28 -8.5t26 -7.5t28 -8t26.5 -7.5q82 -21 127 -36t77 -36.5t43 -47t11 -66.5q0 -30 -11 -61t-35.5 -62.5t-72.5 -51 t-112 -19.5q-65 0 -113 19.5t-72 51t-35 62.5t-11 61q0 50 -34.5 84.5t-84.5 34.5q-51 0 -86 -34.5t-35 -84.5z" />
<glyph unicode="6" horiz-adv-x="999" d="M41 438q0 191 57.5 368.5t165.5 319.5q115 151 264 231.5t312 80.5q49 0 83.5 -34.5t34.5 -84.5t-34.5 -84.5t-83.5 -34.5q-106 0 -205.5 -56.5t-181.5 -162.5q-39 -53 -74 -119q59 15 121 15q188 0 321 -121q66 -60 101.5 -143t35.5 -175q0 -189 -137 -317 q-133 -121 -321 -121q-189 0 -322 121q-137 128 -137 317zM279 438q0 -93 65.5 -146.5t155.5 -53.5t155.5 53.5t65.5 146.5t-66 147t-155 54t-155 -54t-66 -147z" />
<glyph unicode="7" horiz-adv-x="1019" d="M41 1319q0 -49 34.5 -84t84.5 -35h504l-525 -1026q-23 -44 -8 -91.5t59 -70.5q24 -12 54 -12q34 0 62.5 17.5t43.5 48.5l615 1200q30 62 -4 114q-36 58 -103 58h-698q-50 0 -84.5 -35t-34.5 -84z" />
<glyph unicode="8" horiz-adv-x="1001" d="M41 438q0 93 36 175.5t103 142.5q3 7 10 10q-108 114 -108 272q0 173 127 291q121 109 291 109q172 0 293 -109q127 -118 127 -291q0 -157 -109 -272l10 -10q67 -60 103.5 -142.5t36.5 -175.5q0 -189 -140 -317q-130 -121 -321 -121q-190 0 -320 121q-139 127 -139 317z M279 438q0 -93 66.5 -146.5t154.5 -53.5q90 0 156.5 53.5t66.5 146.5t-66.5 147t-156.5 54q-88 0 -154.5 -54t-66.5 -147zM322 1038q0 -75 53.5 -118t124.5 -43q73 0 126.5 43t53.5 118t-53.5 118.5t-126.5 43.5q-71 0 -124.5 -43.5t-53.5 -118.5z" />
<glyph unicode="9" horiz-adv-x="999" d="M41 119q0 49 34.5 84t84.5 35q106 0 205.5 56.5t181.5 162.5q41 56 74 118q-55 -14 -121 -14q-189 0 -322 121q-66 60 -101.5 142.5t-35.5 174.5q0 190 137 318q133 121 322 121q188 0 321 -121q137 -128 137 -318q0 -191 -57.5 -368.5t-165.5 -319.5 q-115 -151 -263.5 -231t-311.5 -80q-50 0 -84.5 35t-34.5 84zM279 999q0 -93 65.5 -146.5t155.5 -53.5t155.5 53.5t65.5 146.5t-66 147t-155 54t-155 -54t-66 -147z" />
<glyph unicode=":" horiz-adv-x="378" d="M61 41q0 52 37 86.5t90 34.5q54 0 91 -34.5t38 -86.5q-1 -52 -38 -86.5t-91 -34.5q-53 0 -90 34.5t-37 86.5zM61 688q0 52 37 86.5t90 34.5q54 0 91 -34.5t38 -86.5q-1 -52 -38 -86.5t-91 -34.5q-53 0 -90 34.5t-37 86.5z" />
<glyph unicode=";" horiz-adv-x="378" d="M61 41q0 52 37 86.5t90 34.5q54 0 91 -34.5t38 -86.5q-2 -63 -41 -143t-88 -80q-33 0 -63.5 41.5t-47 93t-16.5 88.5zM61 688q0 52 37 86.5t90 34.5q54 0 91 -34.5t38 -86.5q-1 -52 -38 -86.5t-91 -34.5q-53 0 -90 34.5t-37 86.5z" />
<glyph unicode="&#x3c;" horiz-adv-x="690" d="M61 614q0 -33 18 -62t48 -44l330 -164q24 -12 53 -12q33 0 62 17.5t44 47.5q22 44 6.5 91t-59.5 69l-114 57l114 60q44 22 59.5 69t-6.5 91q-22 43 -68.5 58.5t-90.5 -5.5l-330 -166q-30 -15 -48 -44.5t-18 -62.5z" />
<glyph unicode="=" horiz-adv-x="1228" d="M61 348q0 -50 34.5 -84.5t84.5 -34.5h520q50 0 84.5 34.5t34.5 84.5t-34.5 84.5t-84.5 34.5h-520q-50 0 -84.5 -34.5t-34.5 -84.5zM61 688q0 -50 34.5 -84.5t84.5 -34.5h520q50 0 84.5 34.5t34.5 84.5t-34.5 84.5t-84.5 34.5h-520q-50 0 -84.5 -34.5t-34.5 -84.5z" />
<glyph unicode="&#x3e;" horiz-adv-x="690" d="M67.5 488q-15.5 -47 6.5 -91q15 -30 44 -47.5t62 -17.5q29 0 53 12l330 164q30 15 48 44t18 62t-18 62.5t-48 44.5l-330 166q-44 21 -90.5 5.5t-68.5 -58.5q-22 -44 -6.5 -91t59.5 -69l115 -60l-115 -57q-44 -22 -59.5 -69z" />
<glyph unicode="?" horiz-adv-x="1003" d="M61 1038q0 80 30.5 156t85.5 137t140 98t185 37q207 0 327 -129q54 -55 83.5 -128t29.5 -148q0 -52 -8 -99t-18.5 -80.5t-31.5 -67.5t-35.5 -53.5t-43 -45.5t-41 -36t-41.5 -32q-38 -28 -56 -43.5t-39 -44.5t-28.5 -67.5t-7.5 -94.5q0 -49 -34.5 -83.5t-84.5 -34.5 t-84.5 34.5t-34.5 83.5q0 79 15.5 145.5t36 108.5t56 82.5t58.5 59.5t62 47q48 34 69.5 54.5t37.5 62t16 104.5q0 26 -10 52.5t-31 54t-63 44.5t-99 17q-47 0 -84.5 -15t-59 -37t-35.5 -49.5t-19 -49.5t-5 -40q0 -49 -34.5 -83.5t-84.5 -34.5t-84.5 34.5t-34.5 83.5zM346 41 q0 52 37 86.5t90 34.5q54 0 91 -34.5t38 -86.5q-1 -52 -38 -86.5t-91 -34.5q-53 0 -90 34.5t-37 86.5z" />
<glyph unicode="@" horiz-adv-x="1521" d="M41 719q0 117 36.5 227t103 198t155 154.5t198 103t226.5 36.5q146 0 279.5 -57t230 -153t154 -229.5t57.5 -279.5q0 -144 -54.5 -275t-156.5 -233q-34 -34 -81.5 -35t-82.5 31l-4 4l-172 170q-80 -39 -170 -39q-155 0 -266 111t-111 266q0 156 110.5 266.5t266.5 110.5 q157 0 268 -110t111 -267q0 -91 -41 -168l78 -78q65 112 65 246q0 131 -64.5 241.5t-175 175t-241.5 64.5q-198 0 -338.5 -141t-140.5 -340q0 -97 38 -186t102 -153.5t153 -103t186 -38.5q51 0 86 -34.5t35 -84.5t-35 -84.5t-86 -34.5q-116 0 -226 36.5t-198.5 103t-155 155 t-103 198.5t-36.5 226zM623 719q0 -57 40 -98t97 -41q58 0 98.5 41t40.5 98q0 59 -40.5 99t-98.5 40q-57 0 -97 -40.5t-40 -98.5z" />
<glyph unicode="A" horiz-adv-x="1370" d="M48 76q-9 23 -9 45q0 23 10 45l526 1200q13 33 43 52.5t66 19.5t66 -19.5t43 -52.5l526 -1200q10 -23 10 -46q-1 -22 -9 -44q-18 -46 -63 -66q-20 -10 -49 -10q-34 0 -63.5 19.5t-44.5 52.5l-123 282h-586l-123 -282q-20 -46 -66 -64q-22 -9 -43 -9q-24 0 -48 11 q-45 20 -63 66zM496 592h376l-188 430z" />
<glyph unicode="B" horiz-adv-x="1191" d="M41 119v1200q0 49 34.5 84t84.5 35h502q166 0 284.5 -119.5t118.5 -286.5q0 -140 -88 -252q81 -61 127.5 -152t46.5 -196q0 -178 -126.5 -305t-305.5 -127h-559q-50 0 -84.5 35t-34.5 84zM279 238h440q79 0 136.5 57t57.5 137q0 82 -57 139.5t-137 57.5h-440v-391z M279 866h383q68 0 116.5 48.5t48.5 117.5t-48.5 118.5t-116.5 49.5h-383v-334z" />
<glyph unicode="C" horiz-adv-x="1370" d="M41 721q0 -146 57 -279.5t153 -230t229.5 -154t279.5 -57.5q155 0 297 64.5t243 181.5q30 35 30 80v7q-2 49 -40 81q-33 30 -77 30h-9q-49 -4 -82 -41q-69 -78 -163.5 -120.5t-198.5 -42.5q-198 0 -339.5 141t-141.5 340q0 97 38.5 186t103 153t153.5 102t186 38 q104 0 198.5 -43t163.5 -121q32 -37 82 -40h8q44 0 78 30q38 32 40 81v7q0 45 -30 80q-101 117 -243 181.5t-297 64.5q-117 0 -227 -36.5t-198 -103t-154.5 -155t-103 -198t-36.5 -226.5z" />
<glyph unicode="D" horiz-adv-x="1222" d="M41 119v1200q0 49 34.5 84t84.5 35h303q117 0 227 -36.5t198 -103t154.5 -155t103 -198t36.5 -226.5q0 -146 -57 -279.5t-153 -229.5t-229.5 -153t-279.5 -57h-303q-50 0 -84.5 35t-34.5 84zM279 238h184q199 0 340 141t141 340q0 198 -141 339.5t-340 141.5h-184v-962z " />
<glyph unicode="E" horiz-adv-x="1101" d="M41 119v1200q0 50 35 85.5t84 35.5h782q49 0 84 -35.5t35 -85.5q0 -49 -34.5 -84t-84.5 -35h-663v-332h462q50 0 84.5 -34.5t34.5 -85.5q0 -50 -35 -84.5t-84 -34.5h-462v-389h663q50 0 84.5 -35t34.5 -86q0 -49 -34.5 -84t-84.5 -35h-782q-50 0 -84.5 35t-34.5 84z" />
<glyph unicode="F" horiz-adv-x="1103" d="M41 119v1200q0 49 34.5 84t84.5 35h782q51 0 86 -34.5t35 -84.5t-35 -84.5t-86 -34.5h-661v-332h460q49 0 84 -35t35 -85t-35 -84.5t-84 -34.5h-460v-510q0 -49 -35.5 -84t-85.5 -35t-84.5 35t-34.5 84z" />
<glyph unicode="G" horiz-adv-x="1372" d="M41 719q0 -117 36.5 -227t103 -198t155 -154.5t198 -103t226.5 -36.5q157 0 299 64t244 182q28 31 28 78v348q0 50 -34.5 84.5t-84.5 34.5h-407q-49 0 -84 -34.5t-35 -84.5t35 -84.5t84 -34.5h289v-182q-68 -64 -154.5 -98.5t-179.5 -34.5q-198 0 -339.5 141t-141.5 340 q0 97 38.5 186t103 153.5t153.5 103t186 38.5q103 0 197.5 -43.5t164.5 -122.5q32 -37 82 -40h7q45 0 79 30q37 32 41 82v10q0 43 -28 76q-103 117 -245 181.5t-298 64.5q-116 0 -226 -36.5t-198.5 -103t-155 -155t-103 -198.5t-36.5 -226z" />
<glyph unicode="H" horiz-adv-x="1220" d="M41 119v1200q0 49 34.5 84t84.5 35t84.5 -35t34.5 -84v-528h661v528q0 49 35.5 84t85.5 35q49 0 84 -35t35 -84v-1200q0 -49 -35 -84t-84 -35q-50 0 -85.5 35t-35.5 84v434h-661v-434q0 -49 -34.5 -84t-84.5 -35t-84.5 35t-34.5 84z" />
<glyph unicode="I" horiz-adv-x="342" d="M51 119q0 -49 34.5 -84t84.5 -35t85.5 35t35.5 84v1200q0 49 -35.5 84t-85.5 35t-84.5 -35t-34.5 -84v-1200z" />
<glyph unicode="J" horiz-adv-x="884" d="M46 306q-5 -16 -5 -32q0 -30 16 -59q55 -100 154 -157.5t213 -57.5q173 0 296.5 123.5t123.5 296.5v899q0 49 -35.5 84t-85.5 35q-49 0 -84 -35t-35 -84v-899q0 -75 -52.5 -128.5t-127.5 -53.5q-49 0 -92 25.5t-66 68.5q-25 43 -72 56q-18 5 -35 5q-29 0 -57 -14 q-43 -25 -56 -73z" />
<glyph unicode="K" horiz-adv-x="1091" d="M41 121v1200q0 49 34.5 84t84.5 35q51 0 86 -34.5t35 -84.5v-596l561 672q31 37 80 41q6 1 12 1q42 0 74 -28q38 -31 42 -81q1 -6 1 -12q0 -42 -27 -75l-401 -481l407 -572q21 -31 21 -67q1 -11 -1 -23q-8 -48 -49 -77q-31 -22 -67 -22q-10 0 -22 2q-48 8 -76 48 l-371 522l-184 -221v-231q0 -51 -35 -86t-86 -35q-50 0 -84.5 35t-34.5 86z" />
<glyph unicode="L" horiz-adv-x="1005" d="M41 119q0 -49 34.5 -84t84.5 -35h684q51 0 86 34.5t35 84.5t-35 84.5t-86 34.5h-565v1081q0 49 -34.5 84t-84.5 35t-84.5 -35t-34.5 -84v-1200z" />
<glyph unicode="M" horiz-adv-x="1398" d="M41 121q0 -51 34.5 -86t84.5 -35t84.5 35t34.5 86v809l321 -479q38 -54 100 -54q61 0 99 54l321 479v-809q0 -51 34.5 -86t84.5 -35t84.5 35t34.5 86v1200q0 38 -23.5 70.5t-60.5 42.5q-18 6 -35 6q-19 0 -39 -8q-36 -14 -59 -46l-441 -655l-442 655q-22 32 -58 46 q-19 7 -40 8q-18 0 -35 -6q-37 -10 -60.5 -42.5t-23.5 -70.5v-1200z" />
<glyph unicode="N" horiz-adv-x="1265" d="M41 119q0 -49 34.5 -84t84.5 -35t84.5 35t34.5 84v858l733 -930q35 -47 94 -47q23 0 39 8q35 12 57.5 43t22.5 68v1200q0 51 -34.5 86t-84.5 35t-84.5 -35t-34.5 -86v-856l-733 930q-24 31 -60 41q-16 5 -32 5q-20 0 -41 -7q-35 -12 -57.5 -43.5t-22.5 -69.5v-1200z" />
<glyph unicode="O" horiz-adv-x="1519" d="M41 719q0 -146 57 -279.5t153 -229.5t229.5 -153t279.5 -57q117 0 226.5 36.5t198 103t155 154.5t103 198t36.5 227q0 116 -36.5 226t-103 198.5t-155 155t-198.5 103t-226 36.5q-117 0 -227 -36.5t-198 -103t-154.5 -155t-103 -198t-36.5 -226.5zM279 719 q0 198 141 339.5t340 141.5q97 0 186 -38.5t153.5 -103t103 -153.5t38.5 -186q0 -199 -141.5 -340t-339.5 -141q-131 0 -241.5 64.5t-175 175t-64.5 241.5z" />
<glyph unicode="P" horiz-adv-x="1120" d="M41 121v1200q0 49 34.5 84t84.5 35h399q106 0 202 -41t166 -111t111 -166t41 -202q0 -142 -69.5 -262.5t-189.5 -190.5t-261 -70h-280v-276q0 -51 -34.5 -86t-84.5 -35t-84.5 35t-34.5 86zM279 637h280q117 0 200 82.5t83 200.5q0 117 -83 198.5t-200 81.5h-280v-563z " />
<glyph unicode="Q" horiz-adv-x="1521" d="M41 719q0 117 36.5 227t103 198t155 154.5t198 103t226.5 36.5q146 0 279.5 -57t230 -153t154 -229.5t57.5 -279.5q0 -227 -135 -418l98 -98q35 -34 35 -83.5t-35 -84.5t-84 -35q-46 0 -84 35l-98 98q-185 -133 -418 -133q-116 0 -226 36.5t-198.5 103t-155 155 t-103 198.5t-36.5 226zM281 719q0 -97 38 -186t102 -153.5t153 -103t186 -38.5q199 0 340 141.5t141 339.5q0 131 -64.5 241.5t-175 175t-241.5 64.5q-198 0 -338.5 -141t-140.5 -340z" />
<glyph unicode="R" horiz-adv-x="1120" d="M41 119v1200q0 49 34.5 84t84.5 35h399q106 0 202 -41t166 -111t111 -166t41 -202q0 -152 -80.5 -277.5t-212.5 -189.5l242 -248q33 -35 33 -82q0 -52 -37 -88q-33 -33 -82 -33q-52 0 -86 37l-348 360h-229v-278q0 -49 -34.5 -84t-84.5 -35t-84.5 35t-34.5 84zM279 635 h280q117 0 199 83t82 200t-82 199.5t-199 82.5h-280v-565z" />
<glyph unicode="S" horiz-adv-x="1019" d="M41 432q0 -170 119 -295q137 -137 350 -137q217 0 350 137q119 125 119 295q0 204 -160 316q-37 27 -88.5 49.5t-85.5 33.5t-98 29q-106 31 -156.5 55t-67 49t-16.5 68q0 26 10 52.5t31 54t63 44.5t99 17t99 -17t63 -44.5t31 -54t10 -52.5q0 -50 34.5 -84.5t83.5 -34.5 q51 0 86 34.5t35 84.5q0 77 -29 149.5t-83 127.5q-125 129 -330 129t-330 -129q-52 -55 -81 -127.5t-29 -149.5q0 -190 153 -295q35 -25 85 -46.5t78.5 -30.5t94.5 -29q156 -44 208 -82t52 -117q0 -30 -11 -61t-35.5 -62.5t-72.5 -51t-112 -19.5t-112 19.5t-72.5 51 t-35.5 62.5t-11 61q0 50 -34.5 84.5t-84.5 34.5t-84.5 -34.5t-34.5 -84.5z" />
<glyph unicode="T" horiz-adv-x="1210" d="M41 1319q0 49 34.5 84t84.5 35h891q49 0 83.5 -34.5t34.5 -84.5t-34.5 -84.5t-83.5 -34.5h-326v-1081q0 -50 -35 -84.5t-86 -34.5q-50 0 -84.5 35t-34.5 84v1081h-325q-50 0 -84.5 35t-34.5 84z" />
<glyph unicode="U" horiz-adv-x="1261" d="M41 590q0 -160 79 -296t215 -215t296 -79t296 79t215 215t79 296v729q0 51 -34.5 86t-84.5 35q-51 0 -86 -35t-35 -86v-729q0 -145 -102.5 -247.5t-247.5 -102.5q-146 0 -249 102.5t-103 247.5v729q0 51 -34.5 86t-84.5 35t-84.5 -35t-34.5 -86v-729z" />
<glyph unicode="V" horiz-adv-x="1208" d="M49 1278l445 -1200q12 -35 42.5 -56.5t67.5 -21.5q38 0 68.5 21.5t44.5 56.5l444 1200q8 21 8 41q0 25 -12 51q-21 46 -67 62q-20 8 -40 8l-50 -12q-45 -22 -62 -68l-334 -897l-332 897q-18 46 -62 68q-25 12 -50 12q-20 0 -41 -8q-47 -16 -67 -62q-11 -25 -11 -50 q0 -21 8 -42z" />
<glyph unicode="W" horiz-adv-x="1765" d="M47 1286l361 -1200q10 -37 41 -60.5t69 -25.5h4q37 0 68 21.5t43 56.5l250 665l250 -665q13 -35 45 -57q30 -21 66 -21h3q38 2 69.5 25.5t41.5 60.5l362 1200q5 17 5 34q0 28 -15 56q-24 44 -70 58q-18 5 -35 5q-29 -1 -57 -15q-44 -24 -57 -70l-260 -862l-236 632 q-13 35 -44 56.5t-68 21.5t-68 -21.5t-43 -56.5l-237 -632l-261 862q-13 46 -57 70q-28 15 -56 15q-17 0 -34 -5q-47 -14 -71 -58q-15 -27 -15 -55q0 -17 6 -35z" />
<glyph unicode="X" horiz-adv-x="1265" d="M42 106q-1 7 0 15q0 40 26 72l413 526l-413 526q-26 34 -26 74v15q6 48 44 79q34 26 74 26q6 -1 14 -1q48 -6 80 -45l379 -482l379 482q30 39 80 45q7 1 15 1q41 0 73 -26q38 -31 44 -79q1 -8 0 -16q0 -40 -24 -73l-416 -526l416 -526q24 -32 24 -71v-16q-6 -48 -44 -79 q-34 -27 -74 -27q-55 0 -94 45l-379 481l-379 -481q-39 -45 -94 -45q-40 0 -74 27q-38 31 -44 79z" />
<glyph unicode="Y" horiz-adv-x="1140" d="M42 1340q10 49 50 77q31 21 65 21q12 0 25 -2q48 -10 76 -50l311 -456l314 456q28 40 77 50q12 2 24 2q34 0 65 -21q40 -28 49 -77q2 -11 2 -23q0 -35 -21 -66l-389 -569v-563q0 -50 -35 -84.5t-86 -34.5q-49 0 -83.5 34.5t-34.5 84.5v563l-390 569q-21 31 -21 65 q0 12 2 24z" />
<glyph unicode="Z" horiz-adv-x="1269" d="M53 66q15 -30 44.5 -48t62.5 -18h950q50 0 84.5 35t34.5 84t-34.5 84t-84.5 35h-709l770 1009q22 27 25 61v11q0 28 -12 53q-15 31 -44 48.5t-63 17.5h-854q-49 0 -84 -35t-35 -84t35 -84t84 -35h613l-770 -1010q-27 -33 -27 -69q0 -27 14 -55z" />
<glyph unicode="[" horiz-adv-x="587" d="M61 -160q0 -50 34.5 -84.5t84.5 -34.5h226q51 0 85.5 34.5t34.5 84.5t-34.5 84.5t-85.5 34.5h-105v1514h105q51 0 85.5 34t34.5 84t-34.5 84.5t-85.5 34.5h-226q-50 0 -84.5 -35t-34.5 -84v-1751z" />
<glyph unicode="\" horiz-adv-x="819" d="M68 1343l460 -1261q17 -46 62 -67.5t90 -4.5q46 17 67.5 63t4.5 91l-461 1261q-17 46 -62 67.5t-90 4.5q-46 -17 -67 -62.5t-4 -91.5z" />
<glyph unicode="]" horiz-adv-x="587" d="M61 -160q0 -50 35 -84.5t86 -34.5h226q49 0 83.5 34.5t34.5 84.5v1751q0 50 -34.5 84.5t-83.5 34.5h-226q-51 0 -86 -34.5t-35 -84.5t35 -84t86 -34h105v-1514h-105q-51 0 -86 -34.5t-35 -84.5z" />
<glyph unicode="^" horiz-adv-x="690" d="M61 1372q0 -33 18 -62t48 -44q44 -22 91 -6.5t69 59.5l57 115l59 -115q22 -44 69 -59.5t91 6.5q43 22 58.5 68.5t-5.5 90.5l-165 330q-15 30 -44.5 48t-62.5 18t-62 -18t-44 -48l-164 -330q-13 -26 -13 -53z" />
<glyph unicode="_" horiz-adv-x="792" d="M41 -152q0 -31 21.5 -52t52.5 -21h561q31 0 53.5 21.5t22.5 51.5q0 31 -22.5 52.5t-53.5 21.5h-561q-31 0 -52.5 -21.5t-21.5 -52.5z" />
<glyph unicode="`" horiz-adv-x="1228" d="M358 1434q6 26 26.5 42.5t45.5 16.5q3 0 8.5 -1t7.5 -1l252 -55q32 -10 47 -33q17 -27 11 -57q-6 -25 -26.5 -41.5t-45.5 -16.5q-12 0 -16 2l-252 56q-31 6 -47 32q-17 28 -11 56z" />
<glyph unicode="a" d="M41 563q0 114 38 216t109 179q75 83 175.5 126.5t214.5 43.5q167 0 301 -92q9 40 41.5 66t74.5 26q50 0 84.5 -34.5t34.5 -83.5v-891q0 -49 -35 -84t-84 -35q-42 0 -74.5 26t-41.5 66q-134 -92 -301 -92q-114 0 -214.5 43.5t-175.5 126.5q-71 77 -109 179t-38 214z M279 563q0 -141 84.5 -233t214.5 -92q129 0 214 92t85 233q0 142 -85 235t-214 93q-130 0 -214.5 -92.5t-84.5 -235.5z" />
<glyph unicode="b" d="M41 119v1200q0 49 34.5 84t84.5 35t84.5 -35t34.5 -84v-281q131 90 299 90q113 0 213.5 -43.5t175.5 -126.5q71 -77 109 -179t38 -216q0 -112 -38 -214t-109 -179q-75 -83 -175.5 -126.5t-213.5 -43.5q-167 0 -304 92q-7 -40 -40 -66t-74 -26q-50 0 -84.5 35t-34.5 84z M279 563q0 -141 84.5 -233t214.5 -92q129 0 212.5 92t83.5 233q0 143 -83.5 235.5t-212.5 92.5q-130 0 -214.5 -92.5t-84.5 -235.5z" />
<glyph unicode="c" horiz-adv-x="1073" d="M41 565q0 113 38.5 215t110.5 178q73 83 174 126.5t214 43.5q132 0 245.5 -59t188.5 -166q21 -31 21 -66q1 -11 -1 -23q-8 -48 -49 -77q-31 -21 -66 -21q-11 0 -23 2q-48 9 -77 50q-41 59 -103.5 91t-135.5 32q-129 0 -213 -92.5t-84 -233.5q0 -142 84 -234.5t213 -92.5 q73 0 135.5 31.5t103.5 90.5q29 41 77 50q12 2 23 2q35 0 66 -21q41 -29 49 -77q2 -11 1 -23q0 -36 -21 -66q-75 -107 -188.5 -166t-245.5 -59q-113 0 -214 43.5t-174 126.5q-72 76 -110.5 178.5t-38.5 216.5z" />
<glyph unicode="d" d="M41 563q0 115 37.5 217t109.5 178q75 83 175.5 126.5t214.5 43.5q165 0 299 -90v281q0 50 34.5 84.5t83.5 34.5t84 -35t35 -84v-1200q0 -49 -35 -84t-84 -35q-42 0 -74.5 26t-41.5 66q-134 -92 -301 -92q-114 0 -214.5 43.5t-175.5 126.5q-71 76 -109 178t-38 215z M279 563q0 -141 84.5 -233t214.5 -92q129 0 214 92t85 233q0 142 -85 235t-214 93q-130 0 -214.5 -92.5t-84.5 -235.5z" />
<glyph unicode="e" horiz-adv-x="1128" d="M41 559q0 -113 38 -215t109 -178q76 -84 176.5 -130t213.5 -46q313 0 440 229q17 28 17 59q0 14 -4 30q-12 48 -54 75q-28 17 -59 17q-14 0 -30 -4q-48 -12 -75 -54q-63 -115 -235 -115q-98 0 -174 59t-107 154h670q51 0 85.5 34.5t34.5 84.5q0 246 -147 405.5 t-373 159.5q-111 0 -208.5 -43t-167 -117.5t-110 -179.5t-40.5 -225zM295 680q31 100 107 153.5t165 53.5q90 0 164 -53t103 -154h-539z" />
<glyph unicode="f" horiz-adv-x="733" d="M41 952q0 50 34.5 84.5t84.5 34.5v27q0 140 98.5 239t237.5 99q56 0 120 -23q46 -17 66 -63q11 -23 11 -47q0 -21 -9 -43q-17 -46 -62 -66q-24 -11 -48 -11q-22 0 -44 9q-15 6 -34 6q-41 0 -70 -29.5t-29 -70.5v-27h176q49 0 84 -34.5t35 -84.5q0 -49 -34.5 -83.5 t-84.5 -34.5h-176v-715q0 -50 -34.5 -84.5t-83.5 -34.5t-84 35t-35 84v715q-50 2 -84.5 35.5t-34.5 82.5z" />
<glyph unicode="g" d="M41 553q0 115 37.5 217t109.5 178q75 83 175.5 126.5t214.5 43.5q167 0 301 -92q9 40 41.5 66t74.5 26q49 0 84 -35t35 -84v-968q0 -112 -44 -215t-118.5 -177.5t-177.5 -118.5t-215 -44q-151 0 -281 77t-204 209q-14 27 -14 56q0 17 4 34q14 47 57 72q27 14 56 14 q17 0 34 -4q47 -14 72 -57q41 -75 115.5 -118.5t160.5 -43.5q131 0 224.5 93t93.5 223v49q-134 -90 -299 -90q-114 0 -214.5 43.5t-175.5 126.5q-71 76 -109 178t-38 215zM279 553q0 -141 84.5 -233.5t214.5 -92.5q129 0 214 92.5t85 233.5q0 142 -85 235t-214 93 q-130 0 -214.5 -92.5t-84.5 -235.5z" />
<glyph unicode="h" horiz-adv-x="1017" d="M41 119v1200q0 49 34.5 84t84.5 35q51 0 86 -34.5t35 -84.5v-250q103 59 229 59q98 0 185.5 -38t152.5 -109q129 -138 129 -342v-520q0 -49 -34.5 -84t-84.5 -35t-84.5 35t-34.5 84v520q0 109 -64.5 180.5t-164.5 71.5t-164.5 -71.5t-64.5 -180.5v-520q0 -50 -35 -84.5 t-86 -34.5q-50 0 -84.5 35t-34.5 84z" />
<glyph unicode="i" horiz-adv-x="358" d="M51 1366q0 52 37 86.5t90 34.5q54 0 91 -34.5t38 -86.5q-1 -52 -38 -86.5t-91 -34.5q-53 0 -90 34.5t-37 86.5zM59 119v891q0 49 34.5 83.5t84.5 34.5q51 0 86 -34t35 -84v-891q0 -50 -35 -84.5t-86 -34.5q-50 0 -84.5 35t-34.5 84z" />
<glyph unicode="j" horiz-adv-x="665" d="M46 -156q13 47 56 72q27 14 56 14q17 0 34 -4q47 -14 72 -57q16 -33 55 -33q26 0 44 19t18 45v1110q0 49 34.5 83.5t84.5 34.5q51 0 86 -34t35 -84v-1110q0 -124 -88.5 -212.5t-213.5 -88.5q-83 0 -153.5 41.5t-110.5 113.5q-14 27 -14 56q0 17 5 34zM371 1364 q0 53 37 87t90 34t90 -34t37 -87q0 -52 -37 -85.5t-90 -33.5t-90 33.5t-37 85.5z" />
<glyph unicode="k" horiz-adv-x="942" d="M41 119v1200q0 49 34.5 84t84.5 35t85.5 -35t35.5 -84v-696q54 11 110 41q10 3 17 8q155 92 233 370q12 48 55 72q27 16 56 15q17 0 34 -5q48 -12 72 -56q16 -29 16 -60q0 -15 -4 -31q-15 -50 -21 -69t-30 -80.5t-46.5 -101.5t-62 -94t-85.5 -95l254 -349q23 -30 23 -66 q0 -10 -2 -21q-8 -49 -48 -78q-33 -23 -70 -23q-59 0 -96 49l-268 367q-74 -25 -137 -33v-264q0 -49 -35.5 -84t-85.5 -35t-84.5 35t-34.5 84z" />
<glyph unicode="l" horiz-adv-x="342" d="M51 119q0 -49 34.5 -84t84.5 -35t85.5 35t35.5 84v1200q0 49 -35.5 84t-85.5 35t-84.5 -35t-34.5 -84v-1200z" />
<glyph unicode="m" horiz-adv-x="1622" d="M41 119v891q0 49 34.5 83.5t84.5 34.5q33 0 61.5 -17.5t42.5 -45.5q104 63 234 63q96 0 177.5 -38.5t139.5 -108.5q62 70 148.5 108.5t185.5 38.5q188 0 310 -138.5t122 -350.5v-520q0 -50 -35 -84.5t-86 -34.5q-50 0 -84.5 35t-34.5 84v520q0 113 -52.5 182.5 t-139.5 69.5q-106 0 -162.5 -75.5t-56.5 -176.5v-8v-8v-504q0 -49 -35 -84t-84 -35q-51 0 -86 34.5t-35 84.5v520q0 113 -52.5 182.5t-139.5 69.5q-106 0 -162.5 -75.5t-56.5 -176.5v-8v-8v-504q0 -49 -34.5 -84t-84.5 -35t-84.5 35t-34.5 84z" />
<glyph unicode="n" horiz-adv-x="1017" d="M41 119v506v14v371q0 49 34.5 83.5t84.5 34.5q36 0 65 -19t43 -50q110 69 250 69q195 0 327 -140t132 -349v-520q0 -50 -35 -84.5t-86 -34.5q-50 0 -84.5 35t-34.5 84v520q0 101 -56.5 176.5t-162.5 75.5q-103 0 -171 -72t-68 -180v-8v-8v-504q0 -49 -34.5 -84t-84.5 -35 t-84.5 35t-34.5 84z" />
<glyph unicode="o" horiz-adv-x="1210" d="M41 557q0 -152 75.5 -281.5t205 -205.5t282.5 -76t283 75.5t206 205.5t76 282q0 153 -76 283t-206 206t-283 76t-282.5 -76t-205 -206t-75.5 -283zM279 557q0 135 95 231.5t230 96.5t230.5 -96.5t95.5 -231.5q0 -134 -95.5 -230t-230.5 -96t-230 96t-95 230z" />
<glyph unicode="p" d="M41 -393v1403q0 49 34.5 83.5t84.5 34.5q41 0 74 -26t42 -66q137 92 302 92q236 0 389 -167q71 -77 109 -180t38 -216q0 -236 -147 -395q-75 -82 -175 -126t-214 -44q-161 0 -297 90v-483q0 -49 -35.5 -84t-85.5 -35t-84.5 35t-34.5 84zM281 565q0 -141 84 -233t213 -92 q130 0 214.5 92t84.5 233t-84.5 233.5t-214.5 92.5q-129 0 -213 -92.5t-84 -233.5z" />
<glyph unicode="q" d="M41 565q0 113 38 216t109 180q75 81 175.5 124t214.5 43q164 0 301 -92q9 40 42 66t74 26q50 0 84.5 -34.5t34.5 -83.5v-1403q0 -49 -35 -84t-84 -35q-50 0 -85.5 35t-35.5 84v483q-136 -90 -296 -90q-114 0 -214.5 44t-175.5 126q-147 159 -147 395zM279 565 q0 -141 84.5 -233t214.5 -92q129 0 212.5 92t83.5 233t-83.5 233.5t-212.5 92.5q-130 0 -214.5 -92.5t-84.5 -233.5z" />
<glyph unicode="r" horiz-adv-x="669" d="M41 119v891q0 49 34.5 83.5t84.5 34.5q41 0 72 -24.5t42 -63.5q109 64 234 64q51 0 86 -34.5t35 -84.5t-35 -84.5t-86 -34.5q-98 0 -163.5 -71.5t-65.5 -180.5v-495q0 -49 -34.5 -84t-84.5 -35t-84.5 35t-34.5 84z" />
<glyph unicode="s" horiz-adv-x="837" d="M41 797q0 132 100 229q105 102 269 102q114 0 204 -52t131 -142q12 -25 12 -50q1 -20 -7 -40q-16 -46 -62 -68q-24 -12 -50 -12q-20 0 -41 8q-47 17 -67 62q-10 23 -41 40t-79 17q-63 0 -96 -30.5t-33 -63.5q0 -23 8 -35.5t42 -27.5t109 -34q40 -10 62.5 -16t65.5 -21.5 t69.5 -31.5t60 -43.5t53 -59.5t33 -78t13.5 -100q0 -138 -103 -241q-113 -109 -284 -109q-122 0 -218 56t-139 151q-12 24 -12 50q0 20 8 41q17 47 62 67q25 12 51 12q20 0 40 -8q46 -17 66 -62q14 -28 50.5 -48.5t91.5 -20.5q75 0 112 35.5t37 76.5q0 33 -11 50.5 t-47.5 33.5t-117.5 37q-140 31 -209 76q-133 88 -133 250z" />
<glyph unicode="t" horiz-adv-x="753" d="M41 1010q0 47 33.5 81.5t79.5 36.5v132q0 50 34.5 84t85.5 34q50 0 84.5 -34.5t34.5 -83.5v-132h152q50 0 84.5 -34.5t34.5 -83.5q0 -50 -35 -84.5t-84 -34.5h-152v-590q0 -26 18 -44.5t44 -18.5q30 0 47 22q32 36 82 40q5 0 9 1q44 0 77 -29q38 -30 42 -80v-11 q0 -43 -28 -77q-43 -49 -103 -76.5t-126 -27.5q-125 0 -213 88t-88 213v590q-46 2 -79.5 37t-33.5 82z" />
<glyph unicode="u" horiz-adv-x="1017" d="M41 489v521q0 49 34.5 83.5t84.5 34.5t84.5 -34.5t34.5 -83.5v-521q0 -64 22.5 -119t74.5 -93.5t124 -38.5q101 0 169 72t68 179v521q0 49 34.5 83.5t84.5 34.5q51 0 86 -34t35 -84v-891q0 -50 -35 -84.5t-86 -34.5q-35 0 -64 19.5t-44 50.5q-112 -70 -248 -70 q-196 0 -327.5 140t-131.5 349z" />
<glyph unicode="v" horiz-adv-x="1032" d="M49 965l357 -891q14 -34 43.5 -54t66.5 -20t67.5 20t43.5 54l356 891q10 23 9.5 46t-9.5 45q-19 45 -65 64q-22 9 -45 9q-23 1 -46 -9q-46 -20 -65 -65l-246 -617l-246 617q-18 45 -64 65q-23 10 -46 9q-22 0 -45 -9q-45 -19 -65 -64q-10 -23 -10 -46q0 -22 9 -45z" />
<glyph unicode="w" horiz-adv-x="1480" d="M47 973l289 -891q12 -35 41.5 -58t66.5 -24h7q35 0 65 20t43 54l180 438l181 -438q14 -34 46 -54q30 -20 65 -20h3q37 2 68 24.5t41 57.5l291 891q6 18 6 36q0 27 -14 54q-23 44 -70 59q-19 6 -37 6q-27 0 -53 -13q-44 -22 -60 -68l-188 -582l-168 405q-14 34 -44 55 t-67 21q-35 0 -66 -21t-44 -55l-166 -405l-191 582q-14 46 -58 68q-26 13 -53 13q-18 0 -38 -6q-47 -15 -69 -59q-13 -26 -13 -53q0 -18 6 -37z" />
<glyph unicode="x" horiz-adv-x="1026" d="M42 106q-1 7 0 15q0 40 26 72l292 372l-292 371q-26 32 -26 72v14q6 48 44 80q32 26 72 26q8 0 16 -1q50 -6 80 -44l258 -327l260 327q30 38 80 44q8 1 16 1q40 0 72 -26q38 -32 44 -80q1 -7 0 -14q0 -40 -26 -72l-292 -371l292 -372q26 -32 26 -72v-15q-6 -48 -44 -79 q-34 -27 -74 -27q-55 0 -94 45l-260 328l-258 -328q-39 -45 -94 -45q-40 0 -74 27q-38 31 -44 79z" />
<glyph unicode="y" horiz-adv-x="1026" d="M41 496v514q0 49 34.5 83.5t84.5 34.5t84.5 -34.5t34.5 -83.5v-514q0 -113 66 -185.5t169 -72.5q101 0 167.5 73t66.5 185v514q0 50 34 84t84 34t84.5 -34.5t34.5 -83.5v-1026q0 -135 -66.5 -249.5t-180.5 -181.5t-249 -67t-251.5 68.5t-182.5 187.5q-14 27 -14 56 q0 17 5 35q13 48 56 71q28 16 58 16q16 0 32 -4q47 -14 72 -57q33 -63 93.5 -98t131.5 -35q106 0 182.5 75.5t76.5 182.5v77q-104 -61 -234 -61q-100 0 -189 39t-155 111q-63 67 -96 157t-33 189z" />
<glyph unicode="z" horiz-adv-x="1067" d="M42 135l-2 -16q0 -25 11 -49q15 -32 44.5 -51t64.5 -19h747q49 0 84 35t35 84t-35 84t-84 35h-491l581 694q30 37 30 77q0 25 -11 50q-15 32 -44.5 50.5t-64.5 18.5h-704q-50 0 -84.5 -34.5t-34.5 -83.5q0 -50 35 -84.5t84 -34.5h448l-583 -694q-22 -28 -26 -62z" />
<glyph unicode="{" horiz-adv-x="544" d="M61 719q0 -85 95 -125q15 -258 96 -512q12 -36 44 -59t69 -23q18 0 36 6q47 15 69.5 59.5t8.5 90.5q-81 247 -90 516q0 10 -24.5 26.5t-26.5 20.5q3 6 27 22t24 25q9 272 90 516q14 48 -8.5 91.5t-69.5 58.5q-46 15 -90 -7t-59 -69q-81 -254 -96 -512q-95 -40 -95 -125z " />
<glyph unicode="|" horiz-adv-x="163" d="M61 -84q0 -20 21 -20q20 0 20 20v1569q0 8 -5.5 14t-14.5 6t-15 -6t-6 -14v-1569z" />
<glyph unicode="}" horiz-adv-x="544" d="M66 156q-14 -46 8 -90.5t69 -59.5q18 -6 37 -6q37 0 69 23t44 59q81 254 96 512q94 39 94 125t-94 125q-15 258 -96 512q-15 47 -59.5 69t-90.5 7q-47 -15 -69 -58.5t-8 -91.5q81 -244 90 -516q0 -9 24 -25t27 -22q-2 -4 -26.5 -20.5t-24.5 -26.5q-9 -269 -90 -516z" />
<glyph unicode="~" horiz-adv-x="876" d="M61 608q0 -45 32 -79.5t77 -39.5q2 -1 11 -7.5t14 -10t15.5 -10t20 -10t22 -7.5t27 -6t29.5 -2q67 0 129 45q63 -45 129 -45q74 0 140 53q46 4 77 38.5t31 80.5q0 50 -34.5 84.5t-84.5 34.5q-67 0 -129 -43q-67 43 -129 43t-129 -43q-62 43 -129 43q-50 0 -84.5 -34.5 t-34.5 -84.5z" />
<glyph unicode="&#xa1;" horiz-adv-x="378" d="M61 1331q1 52 38 86.5t91 34.5q53 0 90 -34.5t37 -86.5t-37 -86.5t-90 -34.5q-54 0 -91 34.5t-38 86.5zM72 39v950q0 50 34.5 84.5t83.5 34.5q50 0 84.5 -35t34.5 -84v-950q0 -49 -34.5 -84t-84.5 -35q-49 0 -83.5 34.5t-34.5 84.5z" />
<glyph unicode="&#xa2;" horiz-adv-x="1021" d="M61 496q0 128 60.5 237t164 177t228.5 79l12 115q4 31 26.5 50.5t51.5 19.5h10q32 -3 52.5 -29t15.5 -58l-12 -108q157 -39 262 -156q32 -38 28.5 -87t-40.5 -81q-37 -33 -86 -29.5t-82 40.5q-49 53 -109 73l-57 -499q99 9 166 86q32 37 81.5 40.5t86.5 -28.5t40.5 -81.5 t-28.5 -86.5q-70 -81 -168.5 -125.5t-206.5 -44.5l-12 -113q-3 -29 -26 -49t-52 -20h-10q-31 5 -51 30.5t-17 57.5l14 119q-151 50 -246.5 179.5t-95.5 291.5zM299 496q0 -71 35.5 -131.5t95.5 -94.5l55 473q-81 -24 -133.5 -91.5t-52.5 -155.5z" />
<glyph unicode="&#xa3;" horiz-adv-x="1161" d="M62 131.5q3 34.5 24 61.5q187 243 193 389q2 36 -8 72t-21 57.5t-37 66.5q-29 49 -43 76t-29.5 78t-15.5 100q0 77 29.5 149.5t83.5 127.5q125 129 329 129q205 0 332 -146q107 -123 107 -282q0 -50 -35 -84.5t-84 -34.5t-84 34.5t-35 84.5q0 24 -9 52.5t-29.5 61.5 t-63 54.5t-99.5 21.5t-99.5 -17t-64 -44.5t-31.5 -54t-10 -52.5q0 -27 12.5 -55t43.5 -80q51 -93 57 -109h223q50 0 84.5 -34.5t34.5 -85.5q0 -50 -34.5 -84.5t-84.5 -34.5h-182q-12 -140 -110 -311h575q49 0 84 -35t35 -84t-35 -84t-84 -35h-801q-34 0 -63.5 18.5 t-42.5 49.5q-15 29 -12 63.5z" />
<glyph unicode="&#xa5;" horiz-adv-x="917" d="M63 953.5q9 48.5 50 76.5q40 28 89 19t77 -50l180 -262l180 262q28 41 76 50t88 -19q41 -28 51 -76.5t-18 -89.5l-248 -360h37q49 0 83.5 -34.5t34.5 -84.5t-34.5 -84.5t-83.5 -34.5h-47v-147q0 -49 -35 -84t-84 -35q-50 0 -85.5 35t-35.5 84v147h-47q-49 0 -84 35 t-35 84t35 84t84 35h39l-248 360q-28 41 -19 89.5z" />
<glyph unicode="&#xa6;" horiz-adv-x="163" d="M61 -84q0 -20 21 -20q20 0 20 20v477q0 8 -5.5 14.5t-14.5 6.5t-15 -6.5t-6 -14.5v-477zM61 612q0 -20 21 -20q20 0 20 20v873q0 8 -5.5 14t-14.5 6t-15 -6t-6 -14v-873z" />
<glyph unicode="&#xa7;" horiz-adv-x="925" d="M61 348q0 49 35.5 84t85.5 35t84.5 -34.5t34.5 -84.5q0 -34 50.5 -67.5t123.5 -40.5q98 -8 139 28q13 10 13 25q0 34 -50.5 67.5t-123.5 40.5q-170 17 -281 115.5t-111 231.5q0 110 84 194q-84 90 -84 203q0 120 91 201q58 52 142 75.5t181 14.5q169 -17 279 -115 t110 -231q0 -50 -35 -84.5t-84 -34.5t-83.5 34.5t-34.5 84.5q0 34 -50.5 67.5t-123.5 40.5q-50 6 -87 -3.5t-55 -25.5q-10 -10 -10 -24q0 -34 50.5 -68t123.5 -41q169 -17 279 -115t110 -231q0 -113 -82 -192q82 -92 82 -205q0 -120 -90 -201q-103 -92 -268 -92q-35 0 -53 2 q-170 17 -281 115t-111 231zM301 748q0 -34 50.5 -68t123.5 -41q50 -6 86.5 3.5t52.5 25.5q13 10 13 22q0 36 -50.5 70t-123.5 41q-98 8 -142 -31q-10 -10 -10 -22z" />
<glyph unicode="&#xa8;" horiz-adv-x="659" d="M66 1364q0 41 31 68.5t77 27.5q44 0 75 -27.5t32 -68.5q-1 -41 -32 -68.5t-75 -27.5q-46 0 -77 27.5t-31 68.5zM358 1364q0 41 31.5 68.5t77.5 27.5q44 0 74 -27.5t32 -68.5q-2 -41 -32 -68.5t-74 -27.5q-46 0 -77.5 27.5t-31.5 68.5z" />
<glyph unicode="&#xa9;" horiz-adv-x="1409" d="M61 643q0 -129 49 -246.5t140 -208.5t208.5 -139.5t246.5 -48.5t246 48.5t208 139.5t140 208.5t49 246.5q0 128 -49 245t-140 210q-91 91 -208 139.5t-246 48.5t-246.5 -48.5t-208.5 -139.5q-91 -93 -140 -210t-49 -245zM104 643q0 119 46 228t131 196q85 85 194.5 130.5 t229.5 45.5t229 -45.5t194 -130.5q85 -87 131 -196t46 -228q0 -120 -46 -229.5t-131 -194.5q-84 -86 -193 -131t-230 -45t-230.5 45t-193.5 131q-85 85 -131 194.5t-46 229.5zM389 643q0 -130 91 -221.5t220 -91.5q88 0 162.5 45t114.5 121q10 17 -8 28q-7 5 -16.5 2 t-12.5 -10q-35 -66 -100 -104.5t-140 -38.5q-111 0 -189.5 79t-78.5 191q0 110 79 190t189 80q75 0 140 -38.5t100 -104.5q3 -7 12.5 -10t16.5 2q7 3 10 12.5t-2 16.5q-40 76 -114.5 120.5t-162.5 44.5q-129 0 -220 -92t-91 -221z" />
<glyph unicode="&#xab;" horiz-adv-x="1277" d="M61 614q0 -33 18 -62t48 -44l330 -164q24 -12 53 -12q33 0 62 17.5t44 47.5q22 44 6.5 91t-59.5 69l-114 57l114 60q44 22 59.5 69t-6.5 91q-22 43 -68.5 58.5t-90.5 -5.5l-330 -166q-30 -15 -48 -44.5t-18 -62.5zM649 614q0 -33 18 -62t48 -44l329 -164q24 -12 54 -12 q33 0 62 17.5t44 47.5q22 44 6.5 91t-59.5 69l-115 57l115 60q44 22 59.5 69t-6.5 91q-22 43 -69 59t-91 -6l-329 -166q-30 -15 -48 -44.5t-18 -62.5z" />
<glyph unicode="&#xac;" horiz-adv-x="860" d="M61 778q0 -9 7 -14.5t16 -5.5h674v-303q0 -21 20 -21q8 0 14.5 6t6.5 15v323q0 9 -6.5 16t-14.5 7h-694q-9 0 -16 -7t-7 -16z" />
<glyph unicode="&#xad;" horiz-adv-x="1228" />
<glyph unicode="&#xae;" horiz-adv-x="1406" d="M61 643q0 128 49 245t140 210q90 90 207.5 138t247.5 48q128 0 245 -48t207 -138q189 -189 189 -455q0 -130 -48.5 -247.5t-140.5 -207.5q-91 -91 -208 -139.5t-244 -48.5q-129 0 -246.5 48.5t-208.5 139.5t-140 208.5t-49 246.5zM104 643q0 -120 45.5 -230t131.5 -194 q173 -176 424 -176q247 0 423 176q85 85 130 194.5t45 229.5q0 246 -175 424q-177 174 -423 174q-250 0 -424 -174q-177 -177 -177 -424zM485 369v546q0 9 7 16t16 7h256q64 0 111 -47t47 -111q0 -62 -44 -107t-106 -48l146 -244q5 -7 2.5 -17t-9.5 -14q-4 -2 -12 -2 q-11 0 -18 10l-160 267h-193v-256q0 -8 -5.5 -14.5t-14.5 -6.5t-16 6.5t-7 14.5zM528 668h199q6 3 12 0h25q47 0 81 33t34 79q0 47 -34 81t-81 34h-236v-227z" />
<glyph unicode="&#xaf;" horiz-adv-x="546" d="M41 1360q0 -31 21.5 -52.5t52.5 -21.5h315q31 0 53.5 21.5t22.5 52.5t-22.5 52.5t-53.5 21.5h-315q-31 0 -52.5 -21.5t-21.5 -52.5z" />
<glyph unicode="&#xb0;" horiz-adv-x="385" d="M61 1260q0 -54 37.5 -90.5t94.5 -36.5q56 0 93.5 36.5t37.5 90.5q0 55 -37.5 90.5t-93.5 35.5q-57 0 -94.5 -35.5t-37.5 -90.5zM102 1260q0 36 26 59.5t65 23.5q38 0 63 -23t25 -60q0 -36 -25 -60t-63 -24t-64.5 24.5t-26.5 59.5z" />
<glyph unicode="&#xb1;" horiz-adv-x="778" d="M61 283q0 49 34.5 83.5t84.5 34.5h418q50 0 84.5 -34.5t34.5 -83.5t-34.5 -84t-84.5 -35h-418q-50 0 -84.5 35t-34.5 84zM61 815q0 49 34.5 84t84.5 35h90v90q0 50 35 84.5t84 34.5t84 -34.5t35 -84.5v-90h90q50 0 84.5 -35t34.5 -84t-34.5 -84t-84.5 -35h-90v-90 q0 -50 -35 -85.5t-84 -35.5t-84 35.5t-35 85.5v90h-90q-50 0 -84.5 35t-34.5 84z" />
<glyph unicode="&#xb4;" horiz-adv-x="1228" d="M358 1346q-6 30 11 57q15 23 47 33l252 55q2 0 7.5 1t8.5 1q25 0 45.5 -16.5t26.5 -42.5q6 -28 -11 -56q-16 -26 -47 -32l-252 -56q-4 -2 -16 -2q-25 0 -45.5 16.5t-26.5 41.5z" />
<glyph unicode="&#xb5;" horiz-adv-x="1058" d="M61 -270v1280q0 50 35 84t86 34q50 0 84.5 -34.5t34.5 -83.5v-521q0 -101 56.5 -176t162.5 -75q103 0 171.5 72t68.5 179v9v8v504q0 49 34.5 83.5t84.5 34.5q49 0 83.5 -34t34.5 -84v-891q0 -50 -34.5 -84.5t-83.5 -34.5q-36 0 -65.5 19.5t-43.5 50.5q-112 -70 -250 -70 q-122 0 -219 57v-327q0 -50 -34.5 -84.5t-84.5 -34.5q-51 0 -86 34.5t-35 84.5z" />
<glyph unicode="&#xb6;" horiz-adv-x="1056" d="M61 881q0 154 106 262t255 108h571q9 0 16 -6t7 -14v-1401q0 -8 -7 -14t-16 -6q-7 0 -13.5 6t-6.5 14v1378h-191v-1378q0 -8 -6 -14t-14 -6q-9 0 -15 6t-6 14v678h-319q-149 0 -255 109.5t-106 263.5zM102 881q0 -136 94 -233t226 -97h319v657h-319q-132 0 -226 -96 t-94 -231z" />
<glyph unicode="&#xb7;" horiz-adv-x="337" d="M41 688q0 52 37 86.5t90 34.5q54 0 91 -34.5t38 -86.5q-1 -52 -38 -86.5t-91 -34.5q-53 0 -90 34.5t-37 86.5z" />
<glyph unicode="&#xb8;" horiz-adv-x="471" d="M61.5 -318q1.5 27 22.5 46q21 18 47 16t45 -23q17 -20 45 -20q25 0 42.5 17t17.5 42t-17.5 42.5t-42.5 17.5q-28 0 -46.5 18.5t-18.5 46.5v125q0 28 18.5 47t46.5 19q27 0 46.5 -19.5t19.5 -46.5v-71q55 -21 89 -69.5t34 -109.5q0 -78 -55.5 -134t-133.5 -56 q-84 0 -143 65q-18 20 -16.5 47z" />
<glyph unicode="&#xbb;" horiz-adv-x="1263" d="M67.5 488q-15.5 -47 6.5 -91q15 -30 44 -47.5t62 -17.5q29 0 53 12l330 164q30 15 48 44t18 62t-18 62.5t-48 44.5l-330 166q-44 21 -90.5 5.5t-68.5 -58.5q-22 -44 -6.5 -91t59.5 -69l115 -60l-115 -57q-44 -22 -59.5 -69zM640.5 488q-15.5 -47 6.5 -91 q15 -30 44.5 -47.5t62.5 -17.5q29 0 53 12l330 164q29 15 47 43.5t18 62.5t-18 63t-47 44l-330 166q-44 22 -91 6t-69 -59q-22 -44 -6.5 -91t59.5 -69l115 -60l-115 -57q-44 -22 -59.5 -69z" />
<glyph unicode="&#xbf;" horiz-adv-x="1003" d="M61 326q0 52 8 99t18.5 80.5t32 67.5t35.5 53t43.5 45.5t40.5 35.5t42 32q38 28 56 43.5t39 44.5t28.5 67.5t7.5 94.5q0 50 34.5 84.5t83.5 34.5q50 0 84.5 -35t34.5 -84q0 -79 -15.5 -145t-35.5 -108t-56 -82.5t-58.5 -59.5t-61.5 -47q-48 -34 -69.5 -54.5t-37.5 -62 t-16 -104.5q0 -26 10 -52.5t31 -54t63 -44.5t99 -17q58 0 101 21.5t63.5 54.5t29.5 61.5t9 52.5q0 50 34.5 84.5t83.5 34.5t84 -34.5t35 -84.5q0 -80 -30.5 -156t-85.5 -137t-139.5 -98t-184.5 -37q-208 0 -328 129q-54 55 -83.5 128.5t-29.5 148.5zM401 1346q1 52 38 86 t91 34q53 0 90 -34t37 -86t-37 -86.5t-90 -34.5q-54 0 -91 34.5t-38 86.5z" />
<glyph unicode="&#xc0;" horiz-adv-x="1370" d="M48.5 76q-18.5 46 0.5 90l526 1200q13 33 43 52.5t66 19.5t66 -19.5t43 -52.5l526 -1200q20 -44 1.5 -90t-63.5 -66q-20 -10 -49 -10q-34 0 -63.5 19.5t-44.5 52.5l-123 282h-586l-123 -282q-20 -46 -65.5 -64t-91.5 2q-44 20 -62.5 66zM489 1698q6 26 26.5 42.5 t45.5 16.5q3 0 9 -1t8 -1l251 -55q34 -10 48 -33q16 -26 10 -57q-6 -25 -26.5 -41.5t-45.5 -16.5q-12 0 -16 2l-252 56q-31 6 -47 32q-17 28 -11 56zM496 592h376l-188 430z" />
<glyph unicode="&#xc1;" horiz-adv-x="1370" d="M48.5 76q-18.5 46 0.5 90l526 1200q13 33 43 52.5t66 19.5t66 -19.5t43 -52.5l526 -1200q20 -44 1.5 -90t-63.5 -66q-20 -10 -49 -10q-34 0 -63.5 19.5t-44.5 52.5l-123 282h-586l-123 -282q-20 -46 -65.5 -64t-91.5 2q-44 20 -62.5 66zM477 1610q-6 31 10 57 q14 23 48 33l251 55q2 0 8 1t9 1q25 0 45 -16.5t26 -42.5q7 -30 -10 -56q-16 -26 -47 -32l-252 -56q-4 -2 -16 -2q-25 0 -45.5 16.5t-26.5 41.5zM496 592h376l-188 430z" />
<glyph unicode="&#xc2;" horiz-adv-x="1370" d="M48.5 76q-18.5 46 0.5 90l526 1200q13 33 43 52.5t66 19.5t66 -19.5t43 -52.5l526 -1200q20 -44 1.5 -90t-63.5 -66q-20 -10 -49 -10q-34 0 -63.5 19.5t-44.5 52.5l-123 282h-586l-123 -282q-20 -46 -65.5 -64t-91.5 2q-44 20 -62.5 66zM463 1647q10 31 37 43l151 73 q8 4 15 4q6 2 18 2q10 0 16 -2q5 0 17 -4l149 -73q27 -12 37 -43q12 -28 -2 -56q-10 -24 -34.5 -35.5t-49.5 -5.5l-14 6l-119 58l-119 -58l-16 -6q-25 -6 -48.5 5t-35.5 36t-2 56zM496 592h376l-188 430z" />
<glyph unicode="&#xc3;" horiz-adv-x="1370" d="M48.5 76q-18.5 46 0.5 90l526 1200q13 33 43 52.5t66 19.5t66 -19.5t43 -52.5l526 -1200q20 -44 1.5 -90t-63.5 -66q-20 -10 -49 -10q-34 0 -63.5 19.5t-44.5 52.5l-123 282h-586l-123 -282q-20 -46 -65.5 -64t-91.5 2q-44 20 -62.5 66zM352 1673q0 31 21.5 52.5 t52.5 21.5q52 0 102 -35l17 -12q10 -7 20 0l17 12q50 35 102 35q50 0 100 -35l17 -12q10 -7 20 0l19 12q45 35 100 35q31 0 52.5 -21.5t21.5 -52.5q0 -28 -19.5 -49.5t-48.5 -24.5h-6l-6 -2l-12 -8q-53 -41 -111 -41q-61 0 -100 35l-17 10q-11 11 -22 0l-17 -10 q-39 -35 -100 -35q-58 0 -111 41l-12 8l-6 2h-6q-29 3 -48.5 24.5t-19.5 49.5zM496 592h376l-188 430z" />
<glyph unicode="&#xc4;" horiz-adv-x="1370" d="M48.5 76q-18.5 46 0.5 90l526 1200q13 33 43 52.5t66 19.5t66 -19.5t43 -52.5l526 -1200q20 -44 1.5 -90t-63.5 -66q-20 -10 -49 -10q-34 0 -63.5 19.5t-44.5 52.5l-123 282h-586l-123 -282q-20 -46 -65.5 -64t-91.5 2q-44 20 -62.5 66zM430 1626q0 41 31.5 68.5 t77.5 27.5q44 0 74 -27.5t32 -68.5q-2 -41 -32 -68.5t-74 -27.5q-46 0 -77.5 27.5t-31.5 68.5zM496 592h376l-188 430zM723 1626q0 41 31 68.5t77 27.5q44 0 75 -27.5t32 -68.5q-1 -41 -32 -68.5t-75 -27.5q-46 0 -77 27.5t-31 68.5z" />
<glyph unicode="&#xc5;" horiz-adv-x="1370" d="M48.5 76q-18.5 46 0.5 90l526 1200q13 33 43 52.5t66 19.5t66 -19.5t43 -52.5l526 -1200q20 -44 1.5 -90t-63.5 -66q-20 -10 -49 -10q-34 0 -63.5 19.5t-44.5 52.5l-123 282h-586l-123 -282q-20 -46 -65.5 -64t-91.5 2q-44 20 -62.5 66zM496 592h376l-188 430zM551 1694 q0 54 38 91.5t95 37.5q55 0 93 -37.5t38 -91.5t-37.5 -90.5t-93.5 -36.5q-57 0 -95 36.5t-38 90.5zM635 1694q0 -19 14.5 -32t34.5 -13t33.5 13t13.5 32q0 20 -13.5 33.5t-33.5 13.5t-34.5 -13.5t-14.5 -33.5z" />
<glyph unicode="&#xc6;" horiz-adv-x="1720" d="M45.5 87q-13.5 48 11.5 91l670 1198l3 4q2 4 6 9t10.5 12t15 13.5t19 11.5t24.5 8.5t29 3.5h727q49 0 83.5 -34.5t34.5 -84.5t-34.5 -84.5t-83.5 -34.5h-609v-608h461q49 0 84 -35t35 -84t-35 -84t-84 -35h-461v-116h609q49 0 83.5 -34.5t34.5 -84.5t-34.5 -84.5 t-83.5 -34.5h-730q-49 0 -83.5 34.5t-34.5 84.5v235h-285l-164 -293q-15 -29 -43 -45t-61 -16t-58 14q-43 25 -56.5 73zM561 592h152v270z" />
<glyph unicode="&#xc7;" horiz-adv-x="1370" d="M41 721q0 117 36.5 226.5t103 198t154.5 155t198 103t227 36.5q155 0 297 -64.5t243 -181.5q32 -38 29.5 -87t-39.5 -81q-37 -33 -86.5 -30t-81.5 40q-69 78 -163.5 121t-198.5 43q-97 0 -186 -38t-153.5 -102t-103 -153t-38.5 -186q0 -199 141.5 -340t339.5 -141 q104 0 198.5 42.5t163.5 120.5q33 37 82 40.5t86 -29.5q37 -32 39.5 -81t-29.5 -87q-91 -104 -214 -167t-259 -75v-41q55 -21 89 -69t34 -109q0 -78 -55 -134.5t-133 -56.5q-84 0 -144 66q-18 21 -16 47t23 45q20 18 46.5 16.5t45.5 -22.5q17 -20 45 -20q25 0 42 17t17 42 t-17 42t-42 17q-28 0 -47 19t-19 47v92q-181 16 -331.5 115.5t-237 259t-86.5 344.5z" />
<glyph unicode="&#xc8;" horiz-adv-x="1101" d="M41 119v1200q0 50 35 85.5t84 35.5h782q49 0 84 -35.5t35 -85.5q0 -49 -34.5 -84t-84.5 -35h-663v-332h462q50 0 84.5 -34.5t34.5 -85.5q0 -50 -35 -84.5t-84 -34.5h-462v-389h663q50 0 84.5 -35t34.5 -86q0 -49 -34.5 -84t-84.5 -35h-782q-50 0 -84.5 35t-34.5 84z M367 1694q6 26 26 42.5t45 16.5q3 0 9 -1t8 -1l252 -55q32 -10 47 -33q16 -26 10 -57q-6 -25 -26.5 -41.5t-45.5 -16.5q-12 0 -16 2l-252 56q-31 6 -47 32q-17 26 -10 56z" />
<glyph unicode="&#xc9;" horiz-adv-x="1101" d="M41 119v1200q0 50 35 85.5t84 35.5h782q49 0 84 -35.5t35 -85.5q0 -49 -34.5 -84t-84.5 -35h-663v-332h462q50 0 84.5 -34.5t34.5 -85.5q0 -50 -35 -84.5t-84 -34.5h-462v-389h663q50 0 84.5 -35t34.5 -86q0 -49 -34.5 -84t-84.5 -35h-782q-50 0 -84.5 35t-34.5 84z M354 1606q-6 30 11 57q15 23 47 33l252 55q2 0 7.5 1t8.5 1q25 0 45.5 -16.5t26.5 -42.5q6 -28 -11 -56q-16 -26 -47 -32l-252 -56q-4 -2 -16 -2q-25 0 -45.5 16.5t-26.5 41.5z" />
<glyph unicode="&#xca;" horiz-adv-x="1101" d="M41 119v1200q0 50 35 85.5t84 35.5h782q49 0 84 -35.5t35 -85.5q0 -49 -34.5 -84t-84.5 -35h-663v-332h462q50 0 84.5 -34.5t34.5 -85.5q0 -50 -35 -84.5t-84 -34.5h-462v-389h663q50 0 84.5 -35t34.5 -86q0 -49 -34.5 -84t-84.5 -35h-782q-50 0 -84.5 35t-34.5 84z M340 1642q11 32 37 44l151 73q8 4 15 4q6 2 18 2q11 0 17 -2q4 0 16 -4l149 -73q26 -12 37 -44q12 -27 -2 -55q-10 -24 -34.5 -35.5t-49.5 -5.5l-14 6l-119 58l-119 -58l-16 -6q-25 -6 -48.5 5t-35.5 36q-12 24 -2 55z" />
<glyph unicode="&#xcc;" horiz-adv-x="342" d="M-25 1698q6 26 26.5 42.5t45.5 16.5q3 0 8.5 -1t7.5 -1l252 -55q32 -10 47 -33q17 -27 11 -57q-6 -25 -26.5 -41.5t-45.5 -16.5q-12 0 -16 2l-252 56q-31 6 -47 32q-17 28 -11 56zM51 119q0 -49 34.5 -84t84.5 -35t85.5 35t35.5 84v1200q0 49 -35.5 84t-85.5 35 t-84.5 -35t-34.5 -84v-1200z" />
<glyph unicode="&#xcd;" horiz-adv-x="342" d="M-37 1610q-6 31 10 57q15 23 47 33l252 55q2 0 8 1t9 1q25 0 45 -16.5t26 -42.5q7 -30 -10 -56q-16 -26 -47 -32l-252 -56q-4 -2 -16 -2q-25 0 -45.5 16.5t-26.5 41.5zM51 119q0 -49 34.5 -84t84.5 -35t85.5 35t35.5 84v1200q0 49 -35.5 84t-85.5 35t-84.5 -35t-34.5 -84 v-1200z" />
<glyph unicode="&#xce;" horiz-adv-x="342" d="M-51 1647q10 31 37 43l151 73q8 4 15 4q6 2 18 2q10 0 16 -2q5 0 17 -4l149 -73q27 -12 37 -43q12 -28 -2 -56q-10 -24 -34.5 -35.5t-49.5 -5.5l-14 6l-119 58l-119 -58l-16 -6q-25 -6 -48.5 5t-35.5 36t-2 56zM51 119q0 -49 34.5 -84t84.5 -35t85.5 35t35.5 84v1200 q0 49 -35.5 84t-85.5 35t-84.5 -35t-34.5 -84v-1200z" />
<glyph unicode="&#xcf;" horiz-adv-x="342" d="M-84 1626q0 41 31.5 68.5t77.5 27.5q44 0 74 -27.5t32 -68.5q-2 -41 -32 -68.5t-74 -27.5q-46 0 -77.5 27.5t-31.5 68.5zM51 119v1200q0 49 34.5 84t84.5 35t85.5 -35t35.5 -84v-1200q0 -49 -35.5 -84t-85.5 -35t-84.5 35t-34.5 84zM209 1626q0 41 31 68.5t77 27.5 q44 0 75 -27.5t32 -68.5q-1 -41 -32 -68.5t-75 -27.5q-46 0 -77 27.5t-31 68.5z" />
<glyph unicode="&#xd0;" horiz-adv-x="1228" d="M-123 756q0 31 21.5 52t52.5 21h90v490q0 49 34.5 84t84.5 35h303q117 0 227 -36.5t198 -103t154.5 -155t103 -198t36.5 -226.5q0 -146 -57 -279.5t-153 -229.5t-229.5 -153t-279.5 -57h-303q-50 0 -84.5 35t-34.5 84v563h-90q-31 0 -52.5 21.5t-21.5 52.5zM279 238h184 q199 0 340 141t141 340q0 198 -141 339.5t-340 141.5h-184v-371h151q31 0 53.5 -21.5t22.5 -51.5q0 -31 -22.5 -52.5t-53.5 -21.5h-151v-444z" />
<glyph unicode="&#xd1;" horiz-adv-x="1265" d="M41 119q0 -49 34.5 -84t84.5 -35t84.5 35t34.5 84v858l733 -930q35 -47 94 -47q23 0 39 8q35 12 57.5 43t22.5 68v1200q0 51 -34.5 86t-84.5 35t-84.5 -35t-34.5 -86v-856l-733 930q-23 31 -59.5 41.5t-73.5 -2.5q-35 -12 -57.5 -43.5t-22.5 -69.5v-1200zM285 1669 q0 31 21 52.5t52 21.5q53 0 103 -35l16 -12q11 -7 21 0l16 12q50 35 102 35q51 0 101 -35l16 -12q10 -7 21 0l18 12q45 35 100 35q31 0 52.5 -21.5t21.5 -52.5q0 -28 -19 -49.5t-48 -24.5h-7l-6 -2l-12 -8q-53 -41 -111 -41q-61 0 -100 35l-16 10q-11 11 -23 0l-16 -10 q-39 -35 -101 -35q-57 0 -110 41l-12 8l-7 2h-6q-29 3 -48 24.5t-19 49.5z" />
<glyph unicode="&#xd2;" horiz-adv-x="1519" d="M41 719q0 -146 57 -279.5t153 -229.5t229.5 -153t279.5 -57q117 0 226.5 36.5t198 103t155 154.5t103 198t36.5 227q0 116 -36.5 226t-103 198.5t-155 155t-198.5 103t-226 36.5q-117 0 -227 -36.5t-198 -103t-154.5 -155t-103 -198t-36.5 -226.5zM279 719 q0 198 141 339.5t340 141.5q97 0 186 -38.5t153.5 -103t103 -153.5t38.5 -186q0 -199 -141.5 -340t-339.5 -141q-131 0 -241.5 64.5t-175 175t-64.5 241.5zM565 1698q6 26 26.5 42.5t45.5 16.5q3 0 8.5 -1t7.5 -1l252 -55q32 -10 47 -33q17 -27 11 -57q-6 -25 -26.5 -41.5 t-45.5 -16.5q-13 0 -17 2l-251 56q-32 6 -48 32q-17 26 -10 56z" />
<glyph unicode="&#xd3;" horiz-adv-x="1519" d="M41 719q0 -146 57 -279.5t153 -229.5t229.5 -153t279.5 -57q117 0 226.5 36.5t198 103t155 154.5t103 198t36.5 227q0 116 -36.5 226t-103 198.5t-155 155t-198.5 103t-226 36.5q-117 0 -227 -36.5t-198 -103t-154.5 -155t-103 -198t-36.5 -226.5zM279 719 q0 198 141 339.5t340 141.5q97 0 186 -38.5t153.5 -103t103 -153.5t38.5 -186q0 -199 -141.5 -340t-339.5 -141q-131 0 -241.5 64.5t-175 175t-64.5 241.5zM553 1610q-6 31 10 57q15 23 47 33l252 55q2 0 8 1t9 1q25 0 45 -16.5t26 -42.5q7 -30 -10 -56q-16 -26 -47 -32 l-252 -56q-4 -2 -16 -2q-25 0 -45.5 16.5t-26.5 41.5z" />
<glyph unicode="&#xd4;" horiz-adv-x="1519" d="M41 719q0 -146 57 -279.5t153 -229.5t229.5 -153t279.5 -57q117 0 226.5 36.5t198 103t155 154.5t103 198t36.5 227q0 116 -36.5 226t-103 198.5t-155 155t-198.5 103t-226 36.5q-117 0 -227 -36.5t-198 -103t-154.5 -155t-103 -198t-36.5 -226.5zM279 719 q0 198 141 339.5t340 141.5q97 0 186 -38.5t153.5 -103t103 -153.5t38.5 -186q0 -199 -141.5 -340t-339.5 -141q-131 0 -241.5 64.5t-175 175t-64.5 241.5zM539 1647q11 32 36 43l152 73q8 4 14 4q6 2 19 2q10 0 16 -2q5 0 17 -4l149 -73q27 -12 37 -43q12 -28 -2 -56 q-10 -24 -34.5 -35.5t-49.5 -5.5l-14 6l-119 58l-119 -58l-16 -6q-25 -6 -48.5 5t-35.5 36t-2 56z" />
<glyph unicode="&#xd5;" horiz-adv-x="1519" d="M41 719q0 -146 57 -279.5t153 -229.5t229.5 -153t279.5 -57q117 0 226.5 36.5t198 103t155 154.5t103 198t36.5 227q0 116 -36.5 226t-103 198.5t-155 155t-198.5 103t-226 36.5q-117 0 -227 -36.5t-198 -103t-154.5 -155t-103 -198t-36.5 -226.5zM279 719 q0 198 141 339.5t340 141.5q97 0 186 -38.5t153.5 -103t103 -153.5t38.5 -186q0 -199 -141.5 -340t-339.5 -141q-131 0 -241.5 64.5t-175 175t-64.5 241.5zM428 1673q0 31 21.5 52.5t52.5 21.5q52 0 102 -35l17 -12q10 -7 20 0l16 12q50 35 103 35q50 0 100 -35l17 -12 q10 -7 20 0l18 12q45 35 101 35q31 0 52.5 -21.5t21.5 -52.5q0 -28 -19.5 -49.5t-48.5 -24.5h-6l-6 -2l-13 -8q-53 -41 -110 -41q-62 0 -101 35l-16 10q-11 11 -22 0l-17 -10q-39 -35 -100 -35q-58 0 -111 41l-12 8l-6 2h-6q-29 3 -48.5 24.5t-19.5 49.5z" />
<glyph unicode="&#xd6;" horiz-adv-x="1519" d="M41 719q0 117 36.5 226.5t103 198t154.5 155t198 103t227 36.5q116 0 226 -36.5t198.5 -103t155 -155t103 -198.5t36.5 -226q0 -117 -36.5 -227t-103 -198t-155 -154.5t-198 -103t-226.5 -36.5q-146 0 -279.5 57t-229.5 153t-153 229.5t-57 279.5zM279 719 q0 -131 64.5 -241.5t175 -175t241.5 -64.5q198 0 339.5 141t141.5 340q0 97 -38.5 186t-103 153.5t-153.5 103t-186 38.5q-199 0 -340 -141.5t-141 -339.5zM506 1626q0 41 31 68.5t77 27.5q44 0 75 -27.5t32 -68.5q-1 -41 -32 -68.5t-75 -27.5q-46 0 -77 27.5t-31 68.5z M799 1626q0 41 31 68.5t77 27.5q44 0 75 -27.5t32 -68.5q-1 -41 -32 -68.5t-75 -27.5q-46 0 -77 27.5t-31 68.5z" />
<glyph unicode="&#xd7;" horiz-adv-x="655" d="M61.5 421q0.5 49 34.5 85l64 63l-64 64q-34 35 -34 84t34 84q35 35 84.5 35t83.5 -35l64 -64l63 64q35 35 84.5 35t83.5 -35q35 -35 35 -84t-35 -84l-63 -64l63 -63q35 -35 35 -84.5t-35 -83.5q-34 -35 -83.5 -35t-84.5 35l-63 63l-64 -63q-34 -35 -84 -36t-84 34 q-35 36 -34.5 85z" />
<glyph unicode="&#xd8;" horiz-adv-x="1519" d="M41 719q0 146 57 279.5t153 229.5t229.5 153t279.5 57q144 0 273.5 -53.5t228.5 -149.5q4 -4 6 -8q1 -1 2.5 -2t2.5 -2t1 -2q97 -98 151 -228t54 -274q0 -117 -36.5 -226.5t-103 -198t-154.5 -155t-198 -103t-227 -36.5q-144 0 -274 54t-228 151l-6 6l-6 6 q-97 100 -151 229t-54 273zM279 719q0 -131 67 -246l660 660q-112 67 -246 67q-198 0 -339.5 -141t-141.5 -340zM514 305q112 -67 246 -67q199 0 340 141.5t141 339.5q0 134 -67 246z" />
<glyph unicode="&#xd9;" horiz-adv-x="1261" d="M41 590q0 -160 79 -296t215 -215t296 -79t296 79t215 215t79 296v729q0 51 -34.5 86t-84.5 35q-51 0 -86 -35t-35 -86v-729q0 -145 -102.5 -247.5t-247.5 -102.5q-146 0 -249 102.5t-103 247.5v729q0 51 -34.5 86t-84.5 35t-84.5 -35t-34.5 -86v-729zM436 1694 q6 26 26.5 42.5t45.5 16.5q3 0 8.5 -1t7.5 -1l252 -55q32 -10 47 -33q17 -27 11 -57q-6 -25 -26.5 -41.5t-45.5 -16.5q-13 0 -17 2l-251 56q-32 6 -48 32q-17 26 -10 56z" />
<glyph unicode="&#xda;" horiz-adv-x="1261" d="M41 590q0 -160 79 -296t215 -215t296 -79t296 79t215 215t79 296v729q0 51 -34.5 86t-84.5 35q-51 0 -86 -35t-35 -86v-729q0 -145 -102.5 -247.5t-247.5 -102.5q-146 0 -249 102.5t-103 247.5v729q0 51 -34.5 86t-84.5 35t-84.5 -35t-34.5 -86v-729zM424 1606 q-6 31 10 57q15 23 47 33l252 55q2 0 8 1t9 1q25 0 45 -16.5t26 -42.5q7 -30 -10 -56q-16 -26 -47 -32l-252 -56q-4 -2 -16 -2q-25 0 -45.5 16.5t-26.5 41.5z" />
<glyph unicode="&#xdb;" horiz-adv-x="1261" d="M41 590q0 -160 79 -296t215 -215t296 -79t296 79t215 215t79 296v729q0 51 -34.5 86t-84.5 35q-51 0 -86 -35t-35 -86v-729q0 -145 -102.5 -247.5t-247.5 -102.5q-146 0 -249 102.5t-103 247.5v729q0 51 -34.5 86t-84.5 35t-84.5 -35t-34.5 -86v-729zM410 1642 q11 33 36 44l152 73q8 4 14 4q6 2 19 2q10 0 16 -2q5 0 17 -4l149 -73q26 -12 37 -44q12 -27 -2 -55q-10 -24 -34.5 -35.5t-49.5 -5.5l-14 6l-119 58l-119 -58l-16 -6q-25 -6 -48.5 5t-35.5 36q-12 24 -2 55z" />
<glyph unicode="&#xdc;" horiz-adv-x="1261" d="M41 590v729q0 51 34.5 86t84.5 35t84.5 -35t34.5 -86v-729q0 -145 103 -247.5t249 -102.5q145 0 247.5 102.5t102.5 247.5v729q0 51 35 86t86 35q50 0 84.5 -35t34.5 -86v-729q0 -160 -79 -296t-215 -215t-296 -79t-296 79t-215 215t-79 296zM377 1622q0 41 31 68.5 t77 27.5q44 0 75 -27.5t32 -68.5q-1 -41 -32 -68.5t-75 -27.5q-46 0 -77 27.5t-31 68.5zM670 1622q0 41 31 68.5t77 27.5q44 0 75 -27.5t32 -68.5q-1 -41 -32 -68.5t-75 -27.5q-46 0 -77 27.5t-31 68.5z" />
<glyph unicode="&#xdd;" horiz-adv-x="1140" d="M42.5 1340.5q9.5 48.5 49.5 76.5q41 28 89.5 18.5t76.5 -49.5l311 -456l314 456q28 40 76.5 49.5t89.5 -18.5q40 -28 49 -76.5t-19 -89.5l-389 -569v-563q0 -50 -35 -84.5t-86 -34.5q-49 0 -83.5 34.5t-34.5 84.5v563l-390 569q-28 41 -18.5 89.5zM362 1606q-6 30 11 57 q15 23 47 33l252 55q2 0 7.5 1t8.5 1q25 0 45.5 -16.5t26.5 -42.5q7 -30 -10 -56q-16 -26 -48 -32l-251 -56q-4 -2 -17 -2q-25 0 -45.5 16.5t-26.5 41.5z" />
<glyph unicode="&#xde;" horiz-adv-x="1120" d="M41 119v1200q0 49 34.5 84t84.5 35t85.5 -35t35.5 -84v-74h278q106 0 202 -41t166 -111t111 -166t41 -202t-41 -203t-111 -167t-166 -111t-202 -41h-278v-84q0 -49 -35.5 -84t-85.5 -35t-84.5 35t-34.5 84zM281 442h278q117 0 200 82.5t83 200.5q0 117 -83 199t-200 82 h-278v-564z" />
<glyph unicode="&#xdf;" horiz-adv-x="1050" d="M41 147q0 -49 34.5 -83.5t84.5 -34.5t84.5 34.5t34.5 83.5v35q50 -85 141 -133.5t203 -48.5q171 0 284 109q103 103 103 241q0 54 -13.5 100t-33 78t-53 59.5t-60 43.5t-69.5 31.5t-65.5 21.5t-62.5 16q-75 19 -109 34t-42 27.5t-8 35.5q0 31 10 46.5t42.5 29t106.5 30.5 q124 29 176 60q121 71 121 215q0 129 -101 208.5t-265 79.5q-253 0 -394 -153q-149 -168 -149 -496v-670zM279 330v342q36 -76 108 -125q69 -45 209 -76q81 -21 117.5 -37t47.5 -33.5t11 -50.5q0 -41 -37 -76.5t-112 -35.5q-55 0 -91.5 20.5t-50.5 48.5q-13 32 -42.5 51 t-63.5 19q-27 0 -51 -12q-24 -11 -45 -35zM287 944q12 89 41 148.5t72 87.5t85.5 38.5t98.5 10.5q67 0 108 -23q21 -13 21 -28v-7q-6 -5 -20.5 -10.5t-27.5 -9t-35 -9l-30 -7.5q-138 -28 -211 -76q-67 -46 -102 -115z" />
<glyph unicode="&#xe0;" d="M41 563q0 114 38 216t109 179q75 83 175.5 126.5t214.5 43.5q167 0 301 -92q9 40 41.5 66t74.5 26q50 0 84.5 -34.5t34.5 -83.5v-891q0 -49 -35 -84t-84 -35q-42 0 -74.5 26t-41.5 66q-134 -92 -301 -92q-114 0 -214.5 43.5t-175.5 126.5q-71 77 -109 179t-38 214z M279 563q0 -141 84.5 -233t214.5 -92q129 0 214 92t85 233q0 142 -85 235t-214 93q-130 0 -214.5 -92.5t-84.5 -235.5zM383 1389q6 26 26.5 42.5t45.5 16.5q3 0 8.5 -1t7.5 -1l252 -55q32 -10 47 -33q16 -26 10 -58q-6 -25 -26 -41t-45 -16q-13 0 -17 2l-252 55 q-30 6 -47 33q-17 26 -10 56z" />
<glyph unicode="&#xe1;" d="M41 563q0 114 38 216t109 179q75 83 175.5 126.5t214.5 43.5q167 0 301 -92q9 40 41.5 66t74.5 26q50 0 84.5 -34.5t34.5 -83.5v-891q0 -49 -35 -84t-84 -35q-42 0 -74.5 26t-41.5 66q-134 -92 -301 -92q-114 0 -214.5 43.5t-175.5 126.5q-71 77 -109 179t-38 214z M279 563q0 -141 84.5 -233t214.5 -92q129 0 214 92t85 233q0 142 -85 235t-214 93q-130 0 -214.5 -92.5t-84.5 -235.5zM371 1300q-6 32 10 58q15 23 47 33l252 55q2 0 7.5 1t8.5 1q25 0 45.5 -16.5t26.5 -42.5q7 -30 -10 -56q-17 -27 -47 -33l-252 -55q-4 -2 -17 -2 q-25 0 -45 16t-26 41z" />
<glyph unicode="&#xe2;" d="M41 563q0 114 38 216t109 179q75 83 175.5 126.5t214.5 43.5q167 0 301 -92q9 40 41.5 66t74.5 26q50 0 84.5 -34.5t34.5 -83.5v-891q0 -49 -35 -84t-84 -35q-42 0 -74.5 26t-41.5 66q-134 -92 -301 -92q-114 0 -214.5 43.5t-175.5 126.5q-71 77 -109 179t-38 214z M279 563q0 -141 84.5 -233t214.5 -92q129 0 214 92t85 233q0 142 -85 235t-214 93q-130 0 -214.5 -92.5t-84.5 -235.5zM356 1337q10 31 37 43l152 74q8 4 14 4q6 2 19 2q10 0 16 -2q4 0 16 -4l150 -74q27 -12 37 -43q12 -27 -2 -55q-10 -24 -34.5 -35.5t-49.5 -5.5l-15 6 l-118 58l-119 -58l-17 -6q-25 -6 -48.5 5t-35.5 36q-12 24 -2 55z" />
<glyph unicode="&#xe3;" d="M41 563q0 114 38 216t109 179q75 83 175.5 126.5t214.5 43.5q167 0 301 -92q9 40 41.5 66t74.5 26q50 0 84.5 -34.5t34.5 -83.5v-891q0 -49 -35 -84t-84 -35q-42 0 -74.5 26t-41.5 66q-134 -92 -301 -92q-114 0 -214.5 43.5t-175.5 126.5q-71 77 -109 179t-38 214z M246 1364q0 31 21 52.5t52 21.5q53 0 103 -35l16 -12q10 -7 21 0l16 12q50 35 103 35q50 0 100 -35l16 -12q10 -7 21 0l18 12q45 35 101 35q31 0 52 -21.5t21 -52.5q0 -28 -19 -49.5t-48 -24.5h-6l-7 -2l-12 -8q-53 -41 -110 -41q-62 0 -101 35l-16 10q-4 4 -11 4t-12 -4 l-16 -10q-39 -35 -100 -35q-58 0 -111 41l-12 8l-7 2h-6q-29 3 -48 24.5t-19 49.5zM279 563q0 -141 84.5 -233t214.5 -92q129 0 214 92t85 233q0 142 -85 235t-214 93q-130 0 -214.5 -92.5t-84.5 -235.5z" />
<glyph unicode="&#xe4;" d="M41 563q0 114 38 216t109 179q75 83 175.5 126.5t214.5 43.5q167 0 301 -92q9 40 41.5 66t74.5 26q50 0 84.5 -34.5t34.5 -83.5v-891q0 -49 -35 -84t-84 -35q-42 0 -74.5 26t-41.5 66q-134 -92 -301 -92q-114 0 -214.5 43.5t-175.5 126.5q-71 77 -109 179t-38 214z M279 563q0 -141 84.5 -233t214.5 -92q129 0 214 92t85 233q0 142 -85 235t-214 93q-130 0 -214.5 -92.5t-84.5 -235.5zM324 1317q0 41 31 68.5t77 27.5q44 0 75 -27.5t32 -68.5q-1 -41 -32 -68.5t-75 -27.5q-46 0 -77 27.5t-31 68.5zM616 1317q0 41 31.5 68.5t77.5 27.5 q44 0 74 -27.5t32 -68.5q-2 -41 -32 -68.5t-74 -27.5q-46 0 -77.5 27.5t-31.5 68.5z" />
<glyph unicode="&#xe5;" d="M41 563q0 114 38 216t109 179q75 83 175.5 126.5t214.5 43.5q167 0 301 -92q9 40 41.5 66t74.5 26q50 0 84.5 -34.5t34.5 -83.5v-891q0 -49 -35 -84t-84 -35q-42 0 -74.5 26t-41.5 66q-134 -92 -301 -92q-114 0 -214.5 43.5t-175.5 126.5q-71 77 -109 179t-38 214z M279 563q0 -141 84.5 -233t214.5 -92q129 0 214 92t85 233q0 142 -85 235t-214 93q-130 0 -214.5 -92.5t-84.5 -235.5zM444 1384q0 54 38.5 91.5t95.5 37.5q55 0 93 -37.5t38 -91.5t-37.5 -90.5t-93.5 -36.5q-57 0 -95.5 36.5t-38.5 90.5zM528 1384q0 -19 15 -32t35 -13 t33.5 13t13.5 32q0 20 -13.5 34t-33.5 14t-35 -14t-15 -34z" />
<glyph unicode="&#xe6;" horiz-adv-x="1964" d="M41 565q0 112 38 214t109 179q75 83 175.5 126.5t214.5 43.5q236 0 389 -170q10 -10 26 -30q73 95 179 147.5t231 52.5q226 0 373 -159.5t147 -403.5q0 -51 -35.5 -86t-85.5 -35h-669q31 -95 105.5 -150.5t174.5 -55.5q78 0 143 36.5t105 102.5q26 42 74.5 54t89.5 -13 q42 -26 54 -74.5t-13 -89.5q-73 -121 -192 -187.5t-261 -66.5q-167 0 -301 92q-9 -40 -42 -66t-75 -26t-74.5 26t-41.5 66q-134 -92 -301 -92q-114 0 -214.5 43.5t-175.5 126.5q-71 77 -109 179t-38 216zM279 565q0 -142 85 -234.5t214 -92.5t214 92.5t85 234.5 q0 141 -85 233.5t-214 92.5t-214 -92.5t-85 -233.5zM1130 684h539q-29 101 -102.5 154t-163.5 53q-89 0 -165.5 -53.5t-107.5 -153.5z" />
<glyph unicode="&#xe7;" horiz-adv-x="1073" d="M41 565q0 113 38.5 215t110.5 178q73 83 174 126.5t214 43.5q132 0 245.5 -59t188.5 -166q28 -40 19.5 -88.5t-48.5 -77.5q-41 -28 -89.5 -19t-76.5 50q-41 59 -103.5 91t-135.5 32q-129 0 -213 -92.5t-84 -233.5q0 -142 84 -234.5t213 -92.5q73 0 135.5 31.5t103.5 90.5 q28 41 76.5 50t89.5 -19q40 -29 48.5 -77.5t-19.5 -88.5q-136 -193 -367 -221v-31q55 -21 89 -69t34 -109q0 -78 -55 -134t-133 -56q-85 0 -144 65q-18 20 -16.5 46.5t22.5 45.5q20 18 47 16.5t46 -22.5q17 -20 45 -20q25 0 42 17t17 42t-17 42.5t-42 17.5q-28 0 -47 18.5 t-19 46.5v84q-195 22 -324 166q-72 76 -110.5 178.5t-38.5 216.5z" />
<glyph unicode="&#xe8;" horiz-adv-x="1128" d="M41 559q0 -113 38 -215t109 -178q76 -84 176.5 -130t213.5 -46q313 0 440 229q25 41 13 89.5t-54 74.5q-41 25 -89.5 13t-74.5 -54q-63 -115 -235 -115q-98 0 -174 59t-107 154h670q51 0 85.5 34.5t34.5 84.5q0 246 -147 405.5t-373 159.5q-111 0 -208.5 -43t-167 -117.5 t-110 -179.5t-40.5 -225zM295 680q31 100 107 153.5t165 53.5q90 0 164 -53t103 -154h-539zM373 1384q6 26 26 43t45 17q3 0 9 -1t8 -1l252 -56q33 -10 47 -32q16 -26 10 -58q-6 -25 -26.5 -41t-45.5 -16q-12 0 -16 2l-252 55q-30 6 -47 33q-16 26 -10 55z" />
<glyph unicode="&#xe9;" horiz-adv-x="1128" d="M41 559q0 -113 38 -215t109 -178q76 -84 176.5 -130t213.5 -46q313 0 440 229q25 41 13 89.5t-54 74.5q-41 25 -89.5 13t-74.5 -54q-63 -115 -235 -115q-98 0 -174 59t-107 154h670q51 0 85.5 34.5t34.5 84.5q0 246 -147 405.5t-373 159.5q-111 0 -208.5 -43t-167 -117.5 t-110 -179.5t-40.5 -225zM295 680q31 100 107 153.5t165 53.5q90 0 164 -53t103 -154h-539zM360 1296q-6 31 11 58q14 22 47 32l252 56q2 0 7.5 1t8.5 1q25 0 45.5 -17t26.5 -43q6 -29 -10 -55q-17 -27 -48 -33l-251 -55q-4 -2 -17 -2q-25 0 -45.5 16t-26.5 41z" />
<glyph unicode="&#xea;" horiz-adv-x="1128" d="M41 559q0 -113 38 -215t109 -178q76 -84 176.5 -130t213.5 -46q313 0 440 229q25 41 13 89.5t-54 74.5q-41 25 -89.5 13t-74.5 -54q-63 -115 -235 -115q-98 0 -174 59t-107 154h670q51 0 85.5 34.5t34.5 84.5q0 246 -147 405.5t-373 159.5q-111 0 -208.5 -43t-167 -117.5 t-110 -179.5t-40.5 -225zM295 680q31 100 107 153.5t165 53.5q90 0 164 -53t103 -154h-539zM346 1333q10 31 37 43l152 74q8 4 14 4q6 2 18 2q11 0 17 -2q4 0 16 -4l150 -74q25 -11 36 -43q12 -27 -2 -55q-10 -24 -34.5 -35.5t-49.5 -5.5l-14 6l-119 57l-118 -57l-17 -6 q-25 -6 -48.5 5t-35.5 36q-12 24 -2 55z" />
<glyph unicode="&#xeb;" horiz-adv-x="1128" d="M41 559q0 120 40.5 225t110 179.5t167 117.5t208.5 43q226 0 373 -159.5t147 -405.5q0 -50 -34.5 -84.5t-85.5 -34.5h-670q31 -95 107 -154t174 -59q172 0 235 115q26 42 74.5 54t89.5 -13q42 -26 54 -74.5t-13 -89.5q-127 -229 -440 -229q-113 0 -213.5 46t-176.5 130 q-71 76 -109 178t-38 215zM295 680h539q-29 101 -103 154t-164 53q-89 0 -165 -53.5t-107 -153.5zM313 1313q0 41 31.5 68.5t77.5 27.5q44 0 74 -27.5t32 -68.5q-2 -41 -32 -68.5t-74 -27.5q-46 0 -77.5 27.5t-31.5 68.5zM606 1313q0 41 31.5 68.5t77.5 27.5q44 0 74 -27.5 t32 -68.5q-2 -41 -32 -68.5t-74 -27.5q-46 0 -77.5 27.5t-31.5 68.5z" />
<glyph unicode="&#xec;" horiz-adv-x="321" d="M-35 1389q6 26 26.5 42.5t45.5 16.5q3 0 8.5 -1t7.5 -1l252 -55q32 -10 47 -33q16 -26 10 -58q-6 -25 -26 -41t-45 -16q-13 0 -17 2l-251 55q-31 6 -48 33q-17 26 -10 56zM41 119v891q0 49 34.5 83.5t84.5 34.5q51 0 86 -34t35 -84v-891q0 -50 -35 -84.5t-86 -34.5 q-50 0 -84.5 35t-34.5 84z" />
<glyph unicode="&#xed;" horiz-adv-x="321" d="M-47 1300q-6 32 10 58q15 23 47 33l252 55q2 0 8 1t9 1q25 0 45 -16.5t26 -42.5q7 -30 -10 -56q-17 -27 -47 -33l-252 -55q-4 -2 -16 -2q-25 0 -45.5 16t-26.5 41zM41 119v891q0 49 34.5 83.5t84.5 34.5q51 0 86 -34t35 -84v-891q0 -50 -35 -84.5t-86 -34.5 q-50 0 -84.5 35t-34.5 84z" />
<glyph unicode="&#xee;" horiz-adv-x="321" d="M-61 1337q11 32 36 43l152 74q8 4 14 4q6 2 19 2q10 0 16 -2q5 0 17 -4l149 -74q27 -12 37 -43q12 -27 -2 -55q-10 -24 -34.5 -35.5t-49.5 -5.5l-14 6l-119 58l-119 -58l-16 -6q-25 -6 -48.5 5t-35.5 36q-12 24 -2 55zM41 119v891q0 49 34.5 83.5t84.5 34.5q51 0 86 -34 t35 -84v-891q0 -50 -35 -84.5t-86 -34.5q-50 0 -84.5 35t-34.5 84z" />
<glyph unicode="&#xef;" horiz-adv-x="321" d="M-94 1317q0 41 31 68.5t77 27.5q44 0 75 -27.5t32 -68.5q-1 -41 -32 -68.5t-75 -27.5q-46 0 -77 27.5t-31 68.5zM41 119v891q0 49 34.5 83.5t84.5 34.5q51 0 86 -34t35 -84v-891q0 -50 -35 -84.5t-86 -34.5q-50 0 -84.5 35t-34.5 84zM199 1317q0 41 31 68.5t77 27.5 q44 0 75 -27.5t32 -68.5q-1 -41 -32 -68.5t-75 -27.5q-46 0 -77 27.5t-31 68.5z" />
<glyph unicode="&#xf0;" horiz-adv-x="1228" d="M41 557q0 153 75.5 283t205 206t282.5 76q181 0 326 -104v233l-158 -34q-6 -3 -16 -3q-25 0 -45.5 16.5t-26.5 41.5q-6 31 10 57q15 23 47 33l189 41v45q0 50 35 84.5t84 34.5q51 0 85.5 -34.5t34.5 -84.5v-891q0 -152 -76 -282t-206 -205.5t-283 -75.5t-282.5 76 t-205 205.5t-75.5 281.5zM279 557q0 -134 95 -230t230 -96t230.5 96t95.5 230q0 135 -95.5 231.5t-230.5 96.5t-230 -96.5t-95 -231.5z" />
<glyph unicode="&#xf1;" horiz-adv-x="1017" d="M41 119v506v14v371q0 49 34.5 83.5t84.5 34.5q36 0 65 -19t43 -50q110 69 250 69q195 0 327 -140t132 -349v-520q0 -50 -35 -84.5t-86 -34.5q-50 0 -84.5 35t-34.5 84v520q0 101 -56.5 176.5t-162.5 75.5q-103 0 -171 -72t-68 -180v-8v-8v-504q0 -49 -34.5 -84t-84.5 -35 t-84.5 35t-34.5 84zM186 1364q0 31 21.5 52.5t52.5 21.5q52 0 102 -35l17 -12q10 -7 20 0l17 12q50 35 102 35q50 0 100 -35l17 -12q10 -7 20 0l19 12q45 35 100 35q31 0 52.5 -21.5t21.5 -52.5q0 -28 -19.5 -49.5t-48.5 -24.5h-6l-6 -2l-12 -8q-53 -41 -111 -41 q-61 0 -100 35l-17 10q-11 11 -22 0l-17 -10q-39 -35 -100 -35q-57 0 -110 41l-13 8l-6 2h-6q-29 3 -48.5 24.5t-19.5 49.5z" />
<glyph unicode="&#xf2;" horiz-adv-x="1210" d="M41 557q0 -152 75.5 -281.5t205 -205.5t282.5 -76t283 75.5t206 205.5t76 282q0 153 -76 283t-206 206t-283 76t-282.5 -76t-205 -206t-75.5 -283zM279 557q0 135 95 231.5t230 96.5t230.5 -96.5t95.5 -231.5q0 -134 -95.5 -230t-230.5 -96t-230 96t-95 230zM410 1382 q6 26 26 43t45 17q3 0 9 -1t8 -1l252 -56q33 -10 47 -32q16 -26 10 -58q-6 -25 -26.5 -41t-45.5 -16q-12 0 -16 2l-252 55q-30 6 -47 33q-16 26 -10 55z" />
<glyph unicode="&#xf3;" horiz-adv-x="1210" d="M41 557q0 -152 75.5 -281.5t205 -205.5t282.5 -76t283 75.5t206 205.5t76 282q0 153 -76 283t-206 206t-283 76t-282.5 -76t-205 -206t-75.5 -283zM279 557q0 135 95 231.5t230 96.5t230.5 -96.5t95.5 -231.5q0 -134 -95.5 -230t-230.5 -96t-230 96t-95 230zM397 1294 q-6 31 11 58q14 22 47 32l252 56q2 0 7.5 1t8.5 1q25 0 45.5 -17t26.5 -43q6 -28 -11 -55t-47 -33l-252 -55q-4 -2 -16 -2q-25 0 -45.5 16t-26.5 41z" />
<glyph unicode="&#xf4;" horiz-adv-x="1210" d="M41 557q0 -152 75.5 -281.5t205 -205.5t282.5 -76t283 75.5t206 205.5t76 282q0 153 -76 283t-206 206t-283 76t-282.5 -76t-205 -206t-75.5 -283zM279 557q0 135 95 231.5t230 96.5t230.5 -96.5t95.5 -231.5q0 -134 -95.5 -230t-230.5 -96t-230 96t-95 230zM383 1331 q10 31 37 43l151 74q8 4 15 4q6 2 18 2q11 0 17 -2q4 0 16 -4l149 -74q27 -12 37 -43q12 -27 -2 -55q-10 -24 -34.5 -35.5t-49.5 -5.5l-14 6l-119 57l-119 -57l-16 -6q-25 -6 -48.5 5t-35.5 36q-12 24 -2 55z" />
<glyph unicode="&#xf5;" horiz-adv-x="1210" d="M41 557q0 -152 75.5 -281.5t205 -205.5t282.5 -76t283 75.5t206 205.5t76 282q0 153 -76 283t-206 206t-283 76t-282.5 -76t-205 -206t-75.5 -283zM272 1358q0 31 21.5 52.5t52.5 21.5q53 0 103 -35l16 -13q10 -7 20 0l17 13q50 35 102 35q51 0 101 -35l16 -13 q10 -7 20 0l19 13q45 35 100 35q31 0 52.5 -21.5t21.5 -52.5q0 -28 -19.5 -49.5t-48.5 -24.5h-6l-6 -2l-12 -8q-53 -41 -111 -41q-61 0 -100 35l-17 10q-11 11 -22 0l-17 -10q-39 -35 -100 -35q-57 0 -110 41l-13 8l-6 2h-6q-29 3 -48.5 24.5t-19.5 49.5zM279 557 q0 135 95 231.5t230 96.5t230.5 -96.5t95.5 -231.5q0 -134 -95.5 -230t-230.5 -96t-230 96t-95 230z" />
<glyph unicode="&#xf6;" horiz-adv-x="1210" d="M41 557q0 153 75.5 283t205 206t282.5 76t283 -76t206 -206t76 -283q0 -152 -76 -282t-206 -205.5t-283 -75.5t-282.5 76t-205 205.5t-75.5 281.5zM279 557q0 -134 95 -230t230 -96t230.5 96t95.5 230q0 135 -95.5 231.5t-230.5 96.5t-230 -96.5t-95 -231.5zM350 1311 q0 41 31.5 68.5t77.5 27.5q44 0 74 -27.5t32 -68.5q-2 -41 -32 -69t-74 -28q-46 0 -77.5 28t-31.5 69zM643 1311q0 41 31.5 68.5t77.5 27.5q44 0 74 -27.5t32 -68.5q-2 -41 -32 -69t-74 -28q-46 0 -77.5 28t-31.5 69z" />
<glyph unicode="&#xf7;" horiz-adv-x="778" d="M61 569q0 49 34.5 84t84.5 35h520q50 0 84.5 -35t34.5 -84t-34.5 -83.5t-84.5 -34.5h-520q-50 0 -84.5 34.5t-34.5 83.5zM305 281q0 52 37 86t90 34q54 0 91 -34t38 -86q-1 -52 -38 -86.5t-91 -34.5q-53 0 -90 34.5t-37 86.5zM305 866q0 52 37 86.5t90 34.5 q54 0 91 -34.5t38 -86.5q-1 -52 -38 -86.5t-91 -34.5q-53 0 -90 34.5t-37 86.5z" />
<glyph unicode="&#xf8;" horiz-adv-x="1210" d="M41 565q0 152 76 282t206 205.5t283 75.5t282.5 -76t205 -205.5t75.5 -281.5q0 -153 -75.5 -283t-205 -206t-282.5 -76t-283 76t-206 206t-76 283zM281 565q0 -75 26 -131l428 428q-63 29 -129 29q-135 0 -230 -96t-95 -230zM475 266q64 -28 131 -28q135 0 230.5 96 t95.5 231q0 63 -27 129z" />
<glyph unicode="&#xf9;" horiz-adv-x="1017" d="M41 489v521q0 49 34.5 83.5t84.5 34.5t84.5 -34.5t34.5 -83.5v-521q0 -64 22.5 -119t74.5 -93.5t124 -38.5q101 0 169 72t68 179v521q0 49 34.5 83.5t84.5 34.5q51 0 86 -34t35 -84v-891q0 -50 -35 -84.5t-86 -34.5q-35 0 -64 19.5t-44 50.5q-112 -70 -248 -70 q-196 0 -327.5 140t-131.5 349zM305 1389q6 26 26.5 42.5t45.5 16.5q3 0 8.5 -1t7.5 -1l252 -55q32 -10 47 -33q16 -26 10 -58q-6 -25 -26 -41t-45 -16q-13 0 -17 2l-252 55q-30 6 -47 33q-17 26 -10 56z" />
<glyph unicode="&#xfa;" horiz-adv-x="1017" d="M41 489v521q0 49 34.5 83.5t84.5 34.5t84.5 -34.5t34.5 -83.5v-521q0 -64 22.5 -119t74.5 -93.5t124 -38.5q101 0 169 72t68 179v521q0 49 34.5 83.5t84.5 34.5q51 0 86 -34t35 -84v-891q0 -50 -35 -84.5t-86 -34.5q-35 0 -64 19.5t-44 50.5q-112 -70 -248 -70 q-196 0 -327.5 140t-131.5 349zM293 1300q-6 32 10 58q15 23 47 33l252 55q2 0 7.5 1t8.5 1q25 0 45.5 -16.5t26.5 -42.5q7 -30 -10 -56q-17 -27 -47 -33l-252 -55q-4 -2 -16 -2q-25 0 -45.5 16t-26.5 41z" />
<glyph unicode="&#xfb;" horiz-adv-x="1017" d="M41 489v521q0 49 34.5 83.5t84.5 34.5t84.5 -34.5t34.5 -83.5v-521q0 -64 22.5 -119t74.5 -93.5t124 -38.5q101 0 169 72t68 179v521q0 49 34.5 83.5t84.5 34.5q51 0 86 -34t35 -84v-891q0 -50 -35 -84.5t-86 -34.5q-35 0 -64 19.5t-44 50.5q-112 -70 -248 -70 q-196 0 -327.5 140t-131.5 349zM279 1337q11 32 36 43l152 74q8 4 14 4q6 2 19 2q10 0 16 -2q4 0 16 -4l150 -74q27 -12 37 -43q12 -27 -2 -55q-10 -24 -34.5 -35.5t-49.5 -5.5l-15 6l-118 58l-119 -58l-16 -6q-25 -6 -48.5 5t-35.5 36q-12 24 -2 55z" />
<glyph unicode="&#xfc;" horiz-adv-x="1017" d="M41 489v521q0 49 34.5 83.5t84.5 34.5t84.5 -34.5t34.5 -83.5v-521q0 -64 22.5 -119t74.5 -93.5t124 -38.5q101 0 169 72t68 179v521q0 49 34.5 83.5t84.5 34.5q51 0 86 -34t35 -84v-891q0 -50 -35 -84.5t-86 -34.5q-35 0 -64 19.5t-44 50.5q-112 -70 -248 -70 q-196 0 -327.5 140t-131.5 349zM246 1317q0 41 31 68.5t77 27.5q44 0 75 -27.5t32 -68.5q-1 -41 -32 -68.5t-75 -27.5q-46 0 -77 27.5t-31 68.5zM539 1317q0 41 31 68.5t77 27.5q44 0 75 -27.5t32 -68.5q-1 -41 -32 -68.5t-75 -27.5q-46 0 -77 27.5t-31 68.5z" />
<glyph unicode="&#xfd;" horiz-adv-x="1026" d="M41 496v514q0 49 34.5 83.5t84.5 34.5t84.5 -34.5t34.5 -83.5v-514q0 -113 66 -185.5t169 -72.5q101 0 167.5 73t66.5 185v514q0 50 34 84t84 34t84.5 -34.5t34.5 -83.5v-1026q0 -135 -66.5 -249.5t-180.5 -181.5t-249 -67t-251.5 68.5t-182.5 187.5q-23 43 -9.5 91 t56.5 71q43 25 90 11.5t72 -56.5q33 -63 93.5 -98t131.5 -35q106 0 182.5 75.5t76.5 182.5v77q-104 -61 -234 -61q-100 0 -189 39t-155 111q-63 67 -96 157t-33 189zM307 1300q-6 32 10 58q14 23 48 33l251 55q2 0 8 1t9 1q25 0 45.5 -16.5t26.5 -42.5q6 -28 -11 -56 q-17 -27 -47 -33l-252 -55q-4 -2 -16 -2q-25 0 -45.5 16t-26.5 41z" />
<glyph unicode="&#xfe;" horiz-adv-x="1228" d="M41 -393v1710q0 49 34.5 84t84.5 35t85.5 -35t35.5 -84v-277q133 88 297 88q236 0 389 -167q71 -77 109 -180t38 -216q0 -236 -147 -395q-75 -82 -175 -126t-214 -44q-161 0 -297 90v-483q0 -49 -35.5 -84t-85.5 -35t-84.5 35t-34.5 84zM281 565q0 -141 84 -233t213 -92 q130 0 214.5 92t84.5 233t-84.5 233.5t-214.5 92.5q-129 0 -213 -92.5t-84 -233.5z" />
<glyph unicode="&#xff;" horiz-adv-x="1026" d="M41 496v514q0 49 34.5 83.5t84.5 34.5t84.5 -34.5t34.5 -83.5v-514q0 -113 66 -185.5t169 -72.5q101 0 167.5 73t66.5 185v514q0 50 34 84t84 34t84.5 -34.5t34.5 -83.5v-1026q0 -135 -66.5 -249.5t-180.5 -181.5t-249 -67t-251.5 68.5t-182.5 187.5q-23 43 -9.5 91 t56.5 71q43 25 90 11.5t72 -56.5q33 -63 93.5 -98t131.5 -35q106 0 182.5 75.5t76.5 182.5v77q-104 -61 -234 -61q-100 0 -189 39t-155 111q-63 67 -96 157t-33 189zM260 1317q0 41 31.5 68.5t77.5 27.5q44 0 74 -27.5t32 -68.5q-2 -41 -32 -68.5t-74 -27.5 q-46 0 -77.5 27.5t-31.5 68.5zM553 1317q0 41 31.5 68.5t77.5 27.5q44 0 74 -27.5t32 -68.5q-2 -41 -32 -68.5t-74 -27.5q-46 0 -77.5 27.5t-31.5 68.5z" />
<glyph unicode="&#x152;" horiz-adv-x="1986" d="M41 719q0 117 36.5 227t103 198t155 154.5t198 103t226.5 36.5h1067q49 0 84 -35t35 -84t-35 -84t-84 -35h-664v-334h463q50 0 84.5 -34.5t34.5 -83.5q0 -50 -34.5 -84.5t-84.5 -34.5h-463v-391h664q49 0 84 -35t35 -84t-35 -84t-84 -35h-1067q-116 0 -226 36.5 t-198.5 103t-155 155t-103 198.5t-36.5 226zM281 719q0 -97 38 -186t102 -153.5t153 -103t186 -38.5h166v962h-166q-198 0 -338.5 -141t-140.5 -340z" />
<glyph unicode="&#x153;" horiz-adv-x="1964" d="M41 563q0 114 38 216t109 179q75 83 175.5 126.5t214.5 43.5q236 0 389 -170q10 -10 26 -30q73 95 179 147.5t231 52.5q226 0 373 -159.5t147 -405.5q0 -49 -35.5 -84t-85.5 -35h-669q31 -95 105.5 -150.5t174.5 -55.5q78 0 143 36.5t105 102.5q26 42 74.5 54t89.5 -13 q42 -26 54 -74.5t-13 -89.5q-73 -121 -192 -187.5t-261 -66.5q-236 0 -389 170q-13 13 -29 33q-5 -5 -14 -16.5t-14 -16.5q-153 -170 -389 -170q-114 0 -214.5 43.5t-175.5 126.5q-71 77 -109 179t-38 214zM279 563q0 -141 85 -233t214 -92t214 92t85 233q0 142 -85 235 t-214 93t-214 -93t-85 -235zM1130 684h539q-29 101 -102.5 154t-163.5 53q-89 0 -165.5 -53.5t-107.5 -153.5z" />
<glyph unicode="&#x178;" horiz-adv-x="1140" d="M42.5 1340.5q9.5 48.5 49.5 76.5q41 28 89.5 18.5t76.5 -49.5l311 -456l314 456q28 40 76.5 49.5t89.5 -18.5q40 -28 49 -76.5t-19 -89.5l-389 -569v-563q0 -50 -35 -84.5t-86 -34.5q-49 0 -83.5 34.5t-34.5 84.5v563l-390 569q-28 41 -18.5 89.5zM315 1622 q0 41 31.5 68.5t77.5 27.5q44 0 74 -27.5t32 -68.5q-2 -41 -32 -68.5t-74 -27.5q-46 0 -77.5 27.5t-31.5 68.5zM608 1622q0 41 31.5 68.5t77.5 27.5q44 0 74 -27.5t32 -68.5q-2 -41 -32 -68.5t-74 -27.5q-46 0 -77.5 27.5t-31.5 68.5z" />
<glyph unicode="&#x2c6;" horiz-adv-x="1228" d="M385 1362q10 31 37 43l151 74q8 4 15 4q6 2 18 2q11 0 17 -2q4 0 16 -4l149 -74q27 -12 37 -43q12 -27 -2 -55q-10 -24 -34.5 -35.5t-49.5 -5.5l-14 6l-119 57l-119 -57l-16 -6q-25 -6 -48.5 5t-35.5 36q-12 24 -2 55z" />
<glyph unicode="&#x2dc;" horiz-adv-x="743" d="M41 1378q0 31 21.5 52.5t52.5 21.5q52 0 102 -35l16 -12q10 -7 21 0l16 12q50 35 103 35q50 0 100 -35l16 -12q11 -7 21 0l18 12q45 35 101 35q31 0 52 -21.5t21 -52.5q0 -28 -19 -49t-48 -24h-6l-6 -2l-13 -9q-53 -41 -110 -41q-62 0 -101 35l-16 10q-5 4 -12 4t-11 -4 l-16 -10q-39 -35 -100 -35q-58 0 -111 41l-12 9l-6 2h-6q-29 3 -48.5 24t-19.5 49z" />
<glyph unicode="&#x2000;" horiz-adv-x="911" />
<glyph unicode="&#x2001;" horiz-adv-x="1823" />
<glyph unicode="&#x2002;" horiz-adv-x="911" />
<glyph unicode="&#x2003;" horiz-adv-x="1823" />
<glyph unicode="&#x2004;" horiz-adv-x="607" />
<glyph unicode="&#x2005;" horiz-adv-x="455" />
<glyph unicode="&#x2006;" horiz-adv-x="303" />
<glyph unicode="&#x2007;" horiz-adv-x="303" />
<glyph unicode="&#x2008;" horiz-adv-x="227" />
<glyph unicode="&#x2009;" horiz-adv-x="364" />
<glyph unicode="&#x200a;" horiz-adv-x="101" />
<glyph unicode="&#x2010;" horiz-adv-x="780" d="M61 584q0 -50 35 -84.5t86 -34.5h418q50 0 84.5 34.5t34.5 84.5t-35 85.5t-84 35.5h-418q-51 0 -86 -35.5t-35 -85.5z" />
<glyph unicode="&#x2011;" horiz-adv-x="780" d="M61 584q0 -50 35 -84.5t86 -34.5h418q50 0 84.5 34.5t34.5 84.5t-35 85.5t-84 35.5h-418q-51 0 -86 -35.5t-35 -85.5z" />
<glyph unicode="&#x2012;" horiz-adv-x="780" d="M61 584q0 -50 35 -84.5t86 -34.5h418q50 0 84.5 34.5t34.5 84.5t-35 85.5t-84 35.5h-418q-51 0 -86 -35.5t-35 -85.5z" />
<glyph unicode="&#x2013;" horiz-adv-x="923" d="M61 584q0 -50 35 -84.5t86 -34.5h561q49 0 84 34.5t35 84.5t-35 85.5t-84 35.5h-561q-51 0 -86 -35.5t-35 -85.5z" />
<glyph unicode="&#x2014;" horiz-adv-x="1333" d="M61 584q0 -50 35 -84.5t86 -34.5h971q49 0 84 34.5t35 84.5t-35 85.5t-84 35.5h-971q-51 0 -86 -35.5t-35 -85.5z" />
<glyph unicode="&#x2018;" horiz-adv-x="378" d="M61 1391q0 52 37 86t90 34q54 0 91 -34t38 -86q-2 -63 -41 -143.5t-88 -80.5q-33 0 -63.5 42t-47 93.5t-16.5 88.5z" />
<glyph unicode="&#x2019;" horiz-adv-x="378" d="M61 1391q0 52 37 86t90 34q54 0 91 -34t38 -86q-2 -63 -41 -143.5t-88 -80.5q-33 0 -63.5 42t-47 93.5t-16.5 88.5z" />
<glyph unicode="&#x201a;" horiz-adv-x="378" d="M61 41q0 52 37 86.5t90 34.5q54 0 91 -34.5t38 -86.5q-2 -63 -41 -143t-88 -80q-33 0 -63.5 41.5t-47 93t-16.5 88.5z" />
<glyph unicode="&#x201c;" horiz-adv-x="735" d="M61 1391q0 52 37 86t90 34q54 0 91 -34t38 -86q-2 -63 -41 -143.5t-88 -80.5q-33 0 -63.5 42t-47 93.5t-16.5 88.5zM418 1391q0 52 37 86t90 34q54 0 91 -34t38 -86q-2 -63 -41 -143.5t-88 -80.5q-33 0 -63.5 42t-47 93.5t-16.5 88.5z" />
<glyph unicode="&#x201d;" horiz-adv-x="735" d="M61 1391q0 52 37 86t90 34q54 0 91 -34t38 -86q-2 -63 -41 -143.5t-88 -80.5q-33 0 -63.5 42t-47 93.5t-16.5 88.5zM418 1391q0 52 37 86t90 34q54 0 91 -34t38 -86q-2 -63 -41 -143.5t-88 -80.5q-33 0 -63.5 42t-47 93.5t-16.5 88.5z" />
<glyph unicode="&#x201e;" horiz-adv-x="735" d="M61 41q0 52 37 86.5t90 34.5q54 0 91 -34.5t38 -86.5q-2 -63 -41 -143t-88 -80q-33 0 -63.5 41.5t-47 93t-16.5 88.5zM418 41q0 52 37 86.5t90 34.5q54 0 91 -34.5t38 -86.5q-2 -63 -41 -143t-88 -80q-33 0 -63.5 41.5t-47 93t-16.5 88.5z" />
<glyph unicode="&#x2022;" horiz-adv-x="561" d="M61 662q0 88 64 147t154 59q92 0 155 -58.5t66 -147.5q-3 -90 -65.5 -148.5t-155.5 -58.5q-91 0 -154.5 59t-63.5 148z" />
<glyph unicode="&#x2026;" horiz-adv-x="1136" d="M41 41q0 52 37 86.5t90 34.5q54 0 91 -34.5t38 -86.5q-1 -52 -38 -86.5t-91 -34.5q-53 0 -90 34.5t-37 86.5zM440 41q0 52 37 86.5t90 34.5q54 0 91 -34.5t38 -86.5q-1 -52 -38 -86.5t-91 -34.5q-53 0 -90 34.5t-37 86.5zM840 41q0 52 37 86.5t90 34.5q54 0 91 -34.5 t38 -86.5q-1 -52 -38 -86.5t-91 -34.5q-53 0 -90 34.5t-37 86.5z" />
<glyph unicode="&#x202f;" horiz-adv-x="364" />
<glyph unicode="&#x2039;" horiz-adv-x="690" d="M61 614q0 -33 18 -62t48 -44l330 -164q24 -12 53 -12q33 0 62 17.5t44 47.5q22 44 6.5 91t-59.5 69l-114 57l114 60q44 22 59.5 69t-6.5 91q-22 43 -68.5 58.5t-90.5 -5.5l-330 -166q-30 -15 -48 -44.5t-18 -62.5z" />
<glyph unicode="&#x203a;" horiz-adv-x="690" d="M67.5 488q-15.5 -47 6.5 -91q15 -30 44 -47.5t62 -17.5q29 0 53 12l330 164q30 15 48 44t18 62t-18 62.5t-48 44.5l-330 166q-44 21 -90.5 5.5t-68.5 -58.5q-22 -44 -6.5 -91t59.5 -69l115 -60l-115 -57q-44 -22 -59.5 -69z" />
<glyph unicode="&#x205f;" horiz-adv-x="455" />
<glyph unicode="&#x20ac;" horiz-adv-x="1021" d="M61 496q0 194 131 336t322 157l12 115q4 31 26.5 50.5t51.5 19.5h10q32 -3 52.5 -29t15.5 -58l-12 -108q154 -35 262 -156q32 -38 28.5 -87t-40.5 -81q-37 -33 -86 -29.5t-82 40.5q-41 50 -109 73l-20 -164l153 -2q31 -2 53 -22t25 -49v-8q-2 -32 -25 -55t-55 -23l-168 2 l-20 -178q99 9 166 86q32 37 81.5 40.5t86.5 -28.5t40.5 -81.5t-28.5 -86.5q-70 -81 -168.5 -125.5t-206.5 -44.5l-12 -113q-3 -29 -26 -49t-52 -20h-10q-31 5 -51 30.5t-17 57.5l14 119q-151 50 -246.5 179.5t-95.5 291.5zM299 496q0 -71 36 -131.5t97 -94.5l53 473 q-81 -24 -133.5 -92.5t-52.5 -154.5z" />
<glyph unicode="&#x2122;" horiz-adv-x="507" d="M61 1630q0 8 6 13.5t15 5.5h172h4q6 0 12 -9l70 -104l72 104q6 13 22 9q12 -4 12 -19v-192q0 -9 -5 -15t-13 -6t-14 6t-6 15v129l-52 -78q-8 -8 -16 -8q-10 0 -14 8l-54 78v-129q0 -9 -5 -15t-13 -6t-14.5 6t-6.5 15v172h-61v-174q0 -8 -5.5 -13.5t-12.5 -5.5 q-9 0 -15 5.5t-6 13.5v174h-51q-9 0 -15 6t-6 14z" />
<glyph unicode="&#x25fc;" horiz-adv-x="1126" d="M0 0v1126h1126v-1126h-1126z" />
</font>
</defs>
</svg>
